<!-- icon666.com - MILLIONS vector ICONS FREE --><svg viewBox="0 0 64 64" xmlns="http://www.w3.org/2000/svg"><g id="Man_Location" data-name="Man Location"><path d="m12 33h-2v-2a1 1 0 0 0 -2 0v2h-2a1 1 0 0 0 0 2h2v2a1 1 0 0 0 2 0v-2h2a1 1 0 0 0 0-2z" fill="#0074ff"></path><path d="m58 12h-2v-2a1 1 0 0 0 -2 0v2h-2a1 1 0 0 0 0 2h2v2a1 1 0 0 0 2 0v-2h2a1 1 0 0 0 0-2z" fill="#0074ff"></path><path d="m29 1h6a6 6 0 0 1 6 6v4a0 0 0 0 1 0 0h-18a0 0 0 0 1 0 0v-4a6 6 0 0 1 6-6z" fill="#0074ff"></path><ellipse cx="32" cy="51" fill="#f5f7ff" rx="16" ry="6"></ellipse><ellipse cx="32" cy="51" fill="#0074ff" rx="10" ry="2"></ellipse><path d="m48 51v6c0 3.31-7.16 6-16 6s-16-2.69-16-6v-6c0 1.09.78 2.12 2.14 3 6.16 4 21.56 4 27.72 0 1.36-.88 2.14-1.91 2.14-3z" fill="#ccd3eb"></path><path d="m47.9 24.18a16 16 0 0 1 -5.09 13.62 57.36 57.36 0 0 0 -9.15 10.7 2 2 0 0 1 -3.32 0 63.52 63.52 0 0 0 -9.42-11 16 16 0 1 1 27-13.36z" fill="#ccd3eb"></path><circle cx="32" cy="26" fill="#f5f7ff" r="11"></circle><path d="m32 37a11 11 0 0 1 -10.88-12.62l7.88-4.38h6l7.88 4.38a11 11 0 0 1 -10.88 12.62z" fill="#0074ff"></path><g fill="#f5f7ff"><path d="m32 26a3 3 0 0 1 -3-3v-3h6v3a3 3 0 0 1 -3 3z"></path><path d="m32 22a7 7 0 0 1 -7-7v-5h4a4.83 4.83 0 0 0 3.41-1.41l1.59-1.59 1.59 1.59a4.84 4.84 0 0 0 3.41 1.41v5a7 7 0 0 1 -7 7z"></path><path d="m23.5 15h1.5v-5h-1.5a2.5 2.5 0 0 0 0 5z"></path><path d="m40.5 15h-1.5v-5h1.5a2.5 2.5 0 0 1 0 5z"></path></g><path d="m37.94 44.42a55.07 55.07 0 0 1 5.55-5.88 17 17 0 0 0 2.56-22.1 1 1 0 1 0 -1.65 1.12 15 15 0 0 1 -2.26 19.5 58 58 0 0 0 -9.31 10.94 1 1 0 0 1 -1.67 0 64.4 64.4 0 0 0 -9.55-11.11 14.94 14.94 0 0 1 -.13-21.47 3.88 3.88 0 0 0 2.59.65 7.88 7.88 0 0 0 .16.87 12 12 0 1 0 15.54 0 7.88 7.88 0 0 0 .16-.87h.57a3.49 3.49 0 0 0 1.5-6.72v-2.35a7 7 0 0 0 -7-7h-6a7 7 0 0 0 -7 7v2.35a3.48 3.48 0 0 0 -1.76 4.41 17 17 0 0 0 0 24.5 78 78 0 0 1 5.76 6.17c-6.76 1-11 3.47-11 6.57v6c0 1.16.61 2.86 3.54 4.38a1 1 0 1 0 .92-1.77c-1.56-.82-2.46-1.77-2.46-2.61v-2.59c6.21 4.77 23.79 4.77 30 0v2.59c0 2.36-6.42 5-15 5-1 0-2 0-2.93-.1a1 1 0 1 0 -.14 2c1 .07 2 .11 3.07.11 8.24 0 17-2.45 17-7v-6.01c0-3.1-4.28-5.61-11.06-6.58zm-7.94-21.68a7.75 7.75 0 0 0 4 0v.26a2 2 0 0 1 -4 0zm8-7.74a6 6 0 0 1 -12 0v-4h3a5.79 5.79 0 0 0 4.12-1.71l.88-.88c1.09 1.1 2 2.16 4 2.5zm-13 3.86a8.52 8.52 0 0 0 1.15 1.58l-3.46 1.92a10 10 0 0 1 2.31-3.5zm7 17.14a10 10 0 0 1 -9.94-11l5.75-3.2.19.12v1.08a4 4 0 0 0 8 0v-1.08l.19-.12 5.75 3.2a10 10 0 0 1 -9.94 11zm9.31-13.64-3.46-1.92a8.52 8.52 0 0 0 1.15-1.58 10 10 0 0 1 2.31 3.5zm-.81-8.36h-.5v-3h.5a1.5 1.5 0 0 1 0 3zm-11.5-12h6a5 5 0 0 1 5 5v2c-1.27 0-2.48.11-3.71-1.12l-1.58-1.59a1 1 0 0 0 -1.42 0l-1.58 1.59a3.84 3.84 0 0 1 -2.71 1.12h-5v-2a5 5 0 0 1 5-5zm-5.5 9h.5v3h-.5a1.5 1.5 0 0 1 0-3zm9.94 39a24.39 24.39 0 0 1 7.05 1c-3.63 1.33-13.35 1.33-17 0a24.39 24.39 0 0 1 7-1 3 3 0 0 0 2.95 0zm-1.44 6c-8.58 0-15-2.64-15-5 0-1.78 3.92-4 10.51-4.74.47.61.91 1.22 1.33 1.84-3.54.22-7.84.9-7.84 2.9 0 2.78 8.42 3 11 3s11-.22 11-3c0-2-4.28-2.68-7.83-2.9.43-.63.86-1.25 1.31-1.85 6.59.75 10.52 2.96 10.52 4.75 0 2.36-6.42 5-15 5z" fill="#033c59"></path><path d="m25.18 61.41c-.67-.12-1.32-.26-1.93-.42a1 1 0 1 0 -.5 1.94q1 .26 2.07.45a1 1 0 0 0 1.16-.8 1 1 0 0 0 -.8-1.17z" fill="#033c59"></path><path d="m30.29 17.71a1 1 0 0 1 1.42-1.42.41.41 0 0 0 .58 0 1 1 0 0 1 1.42 0c1.29 1.27-1.66 3.18-3.42 1.42z" fill="#96a1c3"></path></g></svg>