<!-- icon666.com - MILLIONS vector ICONS FREE --><svg viewBox="0 0 64 64" xmlns="http://www.w3.org/2000/svg"><g id="Shipping-Stopwatch-Transport-Delivery-Time"><g fill="#bddbff"><path d="m61 48v5h-4a4 4 0 0 0 -8 0h-6v-24h7v10h6v.14l5 2.86v2h-4v4z"></path><circle cx="53" cy="53" r="4"></circle><path d="m15 53a4 4 0 0 0 -8 0h-4v-8h40v8h-19a4 4 0 0 0 -8 0z"></path><circle cx="20" cy="53" r="4"></circle><circle cx="11" cy="53" r="4"></circle><path d="m24.41 25.59a1.955 1.955 0 0 1 .59 1.41 2 2 0 1 1 -2-2 1.955 1.955 0 0 1 1.41.59z"></path><path d="m36.56 16.27-2.35 2.35a13.558 13.558 0 0 0 -2.83-2.83l2.35-2.35z"></path><path d="m12.27 13.44 2.35 2.35a13.558 13.558 0 0 0 -2.83 2.83l-2.35-2.35z"></path><path d="m25 9v4.14a14.356 14.356 0 0 0 -4 0v-4.14z"></path><path d="m34.48 19c-.08-.13-.18-.26-.27-.38a13.558 13.558 0 0 0 -2.83-2.83 13.95 13.95 0 0 0 -6.38-2.65 14.356 14.356 0 0 0 -4 0 13.95 13.95 0 0 0 -6.38 2.65 13.558 13.558 0 0 0 -2.83 2.83c-.09.12-.19.25-.27.38a13.9 13.9 0 0 0 -2.52 8 13.807 13.807 0 0 0 1.88 7 13.741 13.741 0 0 0 3.47 4 13.991 13.991 0 0 0 20.13-19zm-11.48 18a10 10 0 1 1 10-10 9.994 9.994 0 0 1 -10 10z"></path><path d="m27 5v4h-2-4-2v-4z"></path></g><path d="m61.5 41.13-4.5-2.57v-7.56a3.009 3.009 0 0 0 -3-3h-10v-9a1 1 0 0 0 -1-1h-6.76l1.03-1.02a1.008 1.008 0 0 0 0-1.42l-2.83-2.83a1.008 1.008 0 0 0 -1.42 0l-1.76 1.76a14.944 14.944 0 0 0 -5.26-2.19v-2.3h1a1 1 0 0 0 1-1v-4a1 1 0 0 0 -1-1h-8a1 1 0 0 0 -1 1v4a1 1 0 0 0 1 1h1v2.3a14.944 14.944 0 0 0 -5.26 2.19l-1.76-1.76a1.008 1.008 0 0 0 -1.42 0l-2.83 2.83a1.033 1.033 0 0 0 -.29.71 1.052 1.052 0 0 0 .29.71l1.03 1.02h-6.76a1 1 0 0 0 -1 1v34a1 1 0 0 0 1 1h3.1a4.988 4.988 0 0 0 9.4 1.14 4.988 4.988 0 0 0 9.4-1.14h23.2a5 5 0 0 0 9.8 0h3.1a1 1 0 0 0 1-1v-11a1 1 0 0 0 -.5-.87zm-27.77-26.28 1.42 1.42-.87.87a15.858 15.858 0 0 0 -1.42-1.42zm-13.73-8.85h6v2h-6zm4 4v2.05c-.33-.02-.66-.05-1-.05s-.67.03-1 .05v-2.05zm-11.73 4.85.87.87a15.858 15.858 0 0 0 -1.42 1.42l-.87-.87zm10.73-.85a13 13 0 1 1 -4.99 25h2.99v-1.19a11.04 11.04 0 1 0 -8.81-8.81h-2.02a13.161 13.161 0 0 1 -.17-2 13.012 13.012 0 0 1 13-13zm-7.53 21a10.923 10.923 0 0 0 2.97 2h-3.73a13.109 13.109 0 0 1 -1.94-2zm-3.99-2a13.009 13.009 0 0 1 -.84-2h2.12a11.455 11.455 0 0 0 1.03 2zm4.83 0a8.827 8.827 0 0 1 -1.36-2h2.05v-2h-2.77a8.759 8.759 0 0 1 -.23-2 9.031 9.031 0 1 1 4.9 8h.1v-2zm-12.31-13h5.74a14.873 14.873 0 0 0 -1.74 7 14.712 14.712 0 0 0 .15 2h-4.15zm7 36a3 3 0 1 1 3-3 3.009 3.009 0 0 1 -3 3zm9 0a3 3 0 1 1 3-3 3.009 3.009 0 0 1 -3 3zm22-4h-17.1a4.988 4.988 0 0 0 -9.4-1.14 4.988 4.988 0 0 0 -9.4 1.14h-2.1v-6h38zm0-8h-38v-13h4.56a14.769 14.769 0 0 0 .7 2h-3.26v2h4.33a14.836 14.836 0 0 0 1.52 2h-3.85v2h6.04a14.858 14.858 0 0 0 8.96 3 14.99 14.99 0 0 0 13.26-22h5.74zm9-14h3a1 1 0 0 1 1 1v7h-4zm2 26a3 3 0 1 1 3-3 3.009 3.009 0 0 1 -3 3zm7-9h-2v-2h2zm0-4h-3a1 1 0 0 0 -1 1v4a1 1 0 0 0 1 1h3v3h-2.1a5 5 0 0 0 -9.8 0h-4.1v-22h5v9a1 1 0 0 0 1 1h5.49a.01.01 0 0 1 .01.01l4.5 2.57z" fill="#3d9ae2"></path><path d="m50 42h4v2h-4z" fill="#3d9ae2"></path><path d="m11 58h-9v2h60v-2h-9-33z" fill="#3d9ae2"></path><path d="m23 30a3 3 0 0 0 3-3 2.951 2.951 0 0 0 -.3-1.285l3.008-3.008-1.414-1.414-3.009 3.007a2.965 2.965 0 0 0 -1.285-.3 3 3 0 0 0 0 6zm0-4a1 1 0 1 1 -1 1 1 1 0 0 1 1-1z" fill="#3d9ae2"></path><path d="m10 52h2v2h-2z" fill="#3d9ae2"></path><path d="m19 52h2v2h-2z" fill="#3d9ae2"></path><path d="m52 52h2v2h-2z" fill="#3d9ae2"></path></g></svg>