<!-- icon666.com - MILLIONS vector ICONS FREE --><svg id="Capa_1" enable-background="new 0 0 512 512" viewBox="0 0 512 512" xmlns="http://www.w3.org/2000/svg"><g><g><g><path d="m512 208.473h-512v-37.092c0-22.331 15.85-41.929 37.687-46.598l123.052-26.311h190.521l123.052 26.311c21.838 4.669 37.688 24.267 37.688 46.598z" fill="#476dc4"></path></g></g><g fill="#455da0"><circle cx="81.769" cy="226.242" r="32.769"></circle><path d="m512 171.381c0-22.331-15.85-41.929-37.688-46.598l-123.051-26.31h-95.261v110h256z"></path><path d="m241 0h30v53.473h-30z"></path></g><path d="m256 0h15v53.473h-15z" fill="#1f4270"></path><circle cx="426.231" cy="226.242" fill="#1f4270" r="32.769"></circle><path d="m151.683 111.667c-2.832 9.676-4.358 19.903-4.358 30.482 0 59.924 48.751 108.675 108.675 108.675s108.675-48.751 108.675-108.675c0-10.579-1.526-20.806-4.358-30.482z" fill="#d5e8fe"></path><path d="m256 111.667v139.157c59.923 0 108.675-48.751 108.675-108.675 0-10.579-1.526-20.806-4.358-30.482z" fill="#b5dbff"></path><path d="m224.024 192.777-27.986 39.959c17.198 11.422 37.815 18.087 59.962 18.087s42.764-6.665 59.962-18.087l-27.986-39.959c-14.841-23.499-49.111-23.499-63.952 0z" fill="#476dc4"></path><path d="m287.976 192.777c-7.421-11.75-19.699-17.624-31.976-17.624v75.67c22.147 0 42.764-6.665 59.962-18.087z" fill="#455da0"></path><path d="m256 33.474c-52.855 0-97.009 37.931-106.693 87.999h213.386c-9.684-50.069-53.838-87.999-106.693-87.999z" fill="#76e2f8"></path><path d="m256 33.474v87.999h106.693c-9.684-50.069-53.838-87.999-106.693-87.999z" fill="#3aaaff"></path><path d="m450.36 512h-387.72l55.895-203.334h275.932z" fill="#476dc4"></path><path d="m394.466 308.666h-138.466v203.334h194.36z" fill="#455da0"></path><path d="m241 331.664h30v52.666h-30z" fill="#edf5ff"></path><path d="m241 418.33h30v70h-30z" fill="#edf5ff"></path><path d="m256 331.664h15v52.666h-15z" fill="#d5e8fe"></path><path d="m256 418.33h15v70h-15z" fill="#d5e8fe"></path><path d="m512 512h-92.755l-55.895-203.334h90.402z" fill="#1f4270"></path><path d="m58.248 308.666h90.402l-55.894 203.334h-92.756z" fill="#455da0"></path></g></svg>