<!-- icon666.com - MILLIONS vector ICONS FREE --><svg id="Layer_1" viewBox="0 0 256 256" xmlns="http://www.w3.org/2000/svg"><g><g><circle cx="128" cy="128" fill="#478cf7" r="103.976"></circle><circle cx="128" cy="128" fill="#2266d3" r="96.07"></circle><circle cx="128" cy="128" fill="#f1f2f2" r="87.817"></circle><g><g><path d="m53.48 163.76c-.79 0-1.5-.46-1.82-1.17-.23-.49-.24-1.03-.06-1.53.19-.5.56-.9 1.05-1.12.98-.45 2.2.02 2.65.99.45 1.01.01 2.19-1 2.65-.26.12-.53.18-.82.18zm-2.96-7.43c-.85 0-1.61-.55-1.89-1.36-2.95-8.66-4.45-17.74-4.45-26.97.01-46.21 37.61-83.81 83.82-83.82 16.62 0 32.68 4.88 46.47 14.09.92.62 1.16 1.86.55 2.78-.59.88-1.89 1.14-2.77.55-13.13-8.78-28.43-13.42-44.25-13.42-21.28 0-41.32 8.32-56.41 23.41s-23.41 35.13-23.41 56.41c0 8.79 1.43 17.43 4.24 25.68.17.51.14 1.05-.1 1.53-.23.48-.64.84-1.15 1.01-.21.07-.43.11-.65.11z" fill="#fff"></path></g></g><path d="m184.892 61.108c13.047 15.326 20.926 35.187 20.926 56.892 0 48.5-39.317 87.817-87.817 87.817-21.704 0-41.566-7.878-56.892-20.926 16.108 18.921 40.096 30.926 66.892 30.926 48.5 0 87.817-39.317 87.817-87.817-.001-26.796-12.006-50.784-30.926-66.892z" fill="#e6e7e8"></path><path d="m187.542 63.458c14.446 15.651 23.275 36.564 23.275 59.542 0 48.5-39.317 87.817-87.817 87.817-22.978 0-43.891-8.829-59.542-23.275 16.045 17.384 39.02 28.275 64.542 28.275 48.5 0 87.817-39.317 87.817-87.817 0-25.522-10.891-48.497-28.275-64.542z" fill="#d1d3d4"></path></g><g><g><path d="m118.921 166.079c-3.741 0-7.479-1.427-10.333-4.279l-28.776-28.776c-5.706-5.708-5.706-14.958 0-20.666 5.708-5.704 14.958-5.704 20.666 0l18.443 18.445 36.601-36.603c5.708-5.704 14.958-5.704 20.666 0 5.706 5.708 5.706 14.958 0 20.666l-46.934 46.934c-2.854 2.852-6.593 4.279-10.333 4.279z" fill="#478cf7"></path></g></g></g></svg>