<!-- icon666.com - MILLIONS vector ICONS FREE --><svg viewBox="-4 0 480 480" xmlns="http://www.w3.org/2000/svg"><path d="m464 352v88h-96v-88c.027344-8.824219 7.175781-15.972656 16-16h64c8.824219.027344 15.972656 7.175781 16 16zm0 0" fill="#78b9eb"></path><path d="m128 360v72h-112v-72c0-4.417969 3.582031-8 8-8h96c4.417969 0 8 3.582031 8 8zm0 0" fill="#78b9eb"></path><path d="m264 288c0 13.253906-10.746094 24-24 24s-24-10.746094-24-24 10.746094-24 24-24 24 10.746094 24 24zm0 0" fill="#78b9eb"></path><path d="m336.160156 112.320312-96.160156 55.679688-96.160156-55.679688.160156-.320312v-104h152v40h40v64zm0 0" fill="#78b9eb"></path><path d="m184 352h112c4.417969 0 8 3.582031 8 8v72c0 4.417969-3.582031 8-8 8h-112c-4.417969 0-8-3.582031-8-8v-72c0-4.417969 3.582031-8 8-8zm0 0" fill="#78b9eb"></path><g fill="#006df0"><path d="m448 328h-24v-40c0-4.417969-3.582031-8-8-8h-145.136719c-2.914062-11.203125-11.660156-19.949219-22.863281-22.863281v-17.136719h152c4.417969 0 8-3.582031 8-8v-160c0-4.417969-3.582031-8-8-8h-56v-16c0-2.121094-.84375-4.15625-2.34375-5.65625l-40-40c-1.5-1.5-3.535156-2.34375-5.65625-2.34375h-152c-4.417969 0-8 3.582031-8 8v56h-56c-4.417969 0-8 3.582031-8 8v160c0 4.417969 3.582031 8 8 8h152v17.136719c-11.203125 2.914062-19.949219 11.660156-22.863281 22.863281h-145.136719c-4.417969 0-8 3.582031-8 8v56h-32c-8.835938 0-16 7.164062-16 16v64c-4.417969 0-8 3.582031-8 8v16c0 8.835938 7.164062 16 16 16h112c8.835938 0 16-7.164062 16-16v-16c0-4.417969-3.582031-8-8-8v-64c0-8.835938-7.164062-16-16-16h-48v-48h137.136719c2.914062 11.203125 11.660156 19.949219 22.863281 22.863281v25.136719h-48c-8.835938 0-16 7.164062-16 16v72c0 8.835938 7.164062 16 16 16h32v16h-24v16h96v-16h-24v-16h32c8.835938 0 16-7.164062 16-16v-72c0-8.835938-7.164062-16-16-16h-48v-25.136719c11.203125-2.914062 19.949219-11.660156 22.863281-22.863281h137.136719v32h-24c-13.253906 0-24 10.746094-24 24v104c0 13.253906 10.746094 24 24 24h64c13.253906 0 24-10.746094 24-24v-104c0-13.253906-10.746094-24-24-24zm-71.960938-248-32.039062 18.542969v-18.542969zm-72.039062-52.6875 12.6875 12.6875h-12.6875zm-16-11.3125v32c0 4.417969 3.582031 8 8 8h32v51.808594l-34.871094 20.191406h-61.128906v16h33.488281l-25.488281 14.761719-25.488281-14.761719h1.488281v-16h-29.128906l-34.871094-20.191406v-91.808594zm-152 82.542969-32-18.542969h32zm-48 125.457031v-134.761719l148 85.683594c2.476562 1.425781 5.523438 1.425781 8 0l148-85.683594v134.761719zm-72 224v-8h112v8zm104-88v64h-96v-64zm128 104h-16v-16h16zm48-32h-112v-72h112zm-56-128c-8.835938 0-16-7.164062-16-16s7.164062-16 16-16 16 7.164062 16 16-7.164062 16-16 16zm144 40h64c4.417969 0 8 3.582031 8 8v80h-80v-80c0-4.417969 3.582031-8 8-8zm64 120h-64c-4.417969 0-8-3.582031-8-8v-8h80v8c0 4.417969-3.582031 8-8 8zm0 0"></path><path d="m168 32h40v16h-40zm0 0"></path><path d="m168 64h40v16h-40zm0 0"></path><path d="m168 96h80v16h-80zm0 0"></path><path d="m104 160h32v16h-32zm0 0"></path><path d="m104 192h56v16h-56zm0 0"></path><path d="m224 64h88v16h-88zm0 0"></path><path d="m224 32h48v16h-48zm0 0"></path></g></svg>