<!-- icon666.com - MILLIONS vector ICONS FREE --><svg version="1.1" id="Capa_1" xmlns="http://www.w3.org/2000/svg" xmlns:xlink="http://www.w3.org/1999/xlink" x="0px" y="0px" viewBox="0 0 512 512" style="enable-background:new 0 0 512 512;" xml:space="preserve"><g><linearGradient id="SVGID_1_" gradientUnits="userSpaceOnUse" x1="-33.2578" y1="637.7109" x2="-33.2578" y2="570.7009" gradientTransform="matrix(8.5333 0 0 -8.5333 369.1334 5433.2671)"><stop offset="0" style="stop-color:#FC5C7D"></stop><stop offset="0.129" style="stop-color:#F35E85"></stop><stop offset="0.343" style="stop-color:#D9659B"></stop><stop offset="0.616" style="stop-color:#B070BF"></stop><stop offset="0.934" style="stop-color:#777FF0"></stop><stop offset="1" style="stop-color:#6A82FB"></stop></linearGradient><rect x="76.8" y="179.2" style="fill:url(#SVGID_1_);" width="17.067" height="17.067"></rect><linearGradient id="SVGID_2_" gradientUnits="userSpaceOnUse" x1="-25.2578" y1="637.7109" x2="-25.2578" y2="570.7009" gradientTransform="matrix(8.5333 0 0 -8.5333 369.1334 5433.2671)"><stop offset="0" style="stop-color:#FC5C7D"></stop><stop offset="0.129" style="stop-color:#F35E85"></stop><stop offset="0.343" style="stop-color:#D9659B"></stop><stop offset="0.616" style="stop-color:#B070BF"></stop><stop offset="0.934" style="stop-color:#777FF0"></stop><stop offset="1" style="stop-color:#6A82FB"></stop></linearGradient><rect x="110.933" y="179.2" style="fill:url(#SVGID_2_);" width="85.333" height="17.067"></rect><linearGradient id="SVGID_3_" gradientUnits="userSpaceOnUse" x1="-28.2578" y1="637.7109" x2="-28.2578" y2="570.7009" gradientTransform="matrix(8.5333 0 0 -8.5333 369.1334 5433.2671)"><stop offset="0" style="stop-color:#FC5C7D"></stop><stop offset="0.129" style="stop-color:#F35E85"></stop><stop offset="0.343" style="stop-color:#D9659B"></stop><stop offset="0.616" style="stop-color:#B070BF"></stop><stop offset="0.934" style="stop-color:#777FF0"></stop><stop offset="1" style="stop-color:#6A82FB"></stop></linearGradient><rect x="59.733" y="213.333" style="fill:url(#SVGID_3_);" width="136.533" height="17.067"></rect><linearGradient id="SVGID_4_" gradientUnits="userSpaceOnUse" x1="-30.2578" y1="637.7109" x2="-30.2578" y2="570.7009" gradientTransform="matrix(8.5333 0 0 -8.5333 369.1334 5433.2671)"><stop offset="0" style="stop-color:#FC5C7D"></stop><stop offset="0.129" style="stop-color:#F35E85"></stop><stop offset="0.343" style="stop-color:#D9659B"></stop><stop offset="0.616" style="stop-color:#B070BF"></stop><stop offset="0.934" style="stop-color:#777FF0"></stop><stop offset="1" style="stop-color:#6A82FB"></stop></linearGradient><rect x="59.733" y="247.467" style="fill:url(#SVGID_4_);" width="102.4" height="17.067"></rect><linearGradient id="SVGID_5_" gradientUnits="userSpaceOnUse" x1="-13.2578" y1="637.7109" x2="-13.2578" y2="570.7009" gradientTransform="matrix(8.5333 0 0 -8.5333 369.1334 5433.2671)"><stop offset="0" style="stop-color:#FC5C7D"></stop><stop offset="0.129" style="stop-color:#F35E85"></stop><stop offset="0.343" style="stop-color:#D9659B"></stop><stop offset="0.616" style="stop-color:#B070BF"></stop><stop offset="0.934" style="stop-color:#777FF0"></stop><stop offset="1" style="stop-color:#6A82FB"></stop></linearGradient><rect x="247.467" y="426.667" style="fill:url(#SVGID_5_);" width="17.067" height="17.067"></rect><linearGradient id="SVGID_6_" gradientUnits="userSpaceOnUse" x1="-11.2578" y1="637.7109" x2="-11.2578" y2="570.7009" gradientTransform="matrix(8.5333 0 0 -8.5333 369.1334 5433.2671)"><stop offset="0" style="stop-color:#FC5C7D"></stop><stop offset="0.129" style="stop-color:#F35E85"></stop><stop offset="0.343" style="stop-color:#D9659B"></stop><stop offset="0.616" style="stop-color:#B070BF"></stop><stop offset="0.934" style="stop-color:#777FF0"></stop><stop offset="1" style="stop-color:#6A82FB"></stop></linearGradient><rect x="264.533" y="68.267" style="fill:url(#SVGID_6_);" width="17.067" height="17.067"></rect><linearGradient id="SVGID_7_" gradientUnits="userSpaceOnUse" x1="-15.2578" y1="637.7109" x2="-15.2578" y2="570.7009" gradientTransform="matrix(8.5333 0 0 -8.5333 369.1334 5433.2671)"><stop offset="0" style="stop-color:#FC5C7D"></stop><stop offset="0.129" style="stop-color:#F35E85"></stop><stop offset="0.343" style="stop-color:#D9659B"></stop><stop offset="0.616" style="stop-color:#B070BF"></stop><stop offset="0.934" style="stop-color:#777FF0"></stop><stop offset="1" style="stop-color:#6A82FB"></stop></linearGradient><rect x="230.4" y="68.267" style="fill:url(#SVGID_7_);" width="17.067" height="17.067"></rect><linearGradient id="SVGID_8_" gradientUnits="userSpaceOnUse" x1="-13.2578" y1="637.7109" x2="-13.2578" y2="570.7009" gradientTransform="matrix(8.5333 0 0 -8.5333 369.1334 5433.2671)"><stop offset="0" style="stop-color:#FC5C7D"></stop><stop offset="0.129" style="stop-color:#F35E85"></stop><stop offset="0.343" style="stop-color:#D9659B"></stop><stop offset="0.616" style="stop-color:#B070BF"></stop><stop offset="0.934" style="stop-color:#777FF0"></stop><stop offset="1" style="stop-color:#6A82FB"></stop></linearGradient><path style="fill:url(#SVGID_8_);" d="M119.467,68.267v76.8h-76.8c-14.14,0-25.6,11.46-25.6,25.6v102.4 c0,14.14,11.46,25.6,25.6,25.6h76.8v145.067c0,18.85,15.283,34.133,34.133,34.133h204.8c18.85,0,34.133-15.283,34.133-34.133 v-102.4h76.8c14.14,0,25.6-11.46,25.6-25.6V196.267c0-14.14-11.46-25.6-25.6-25.6h-76.8v-102.4 c0-18.85-15.283-34.133-34.133-34.133H153.6C134.75,34.133,119.467,49.417,119.467,68.267z M34.133,273.067v-102.4 c0-4.71,3.823-8.533,8.533-8.533h170.667c4.71,0,8.533,3.823,8.533,8.533v102.4c0,4.71-3.823,8.533-8.533,8.533h-25.6 c-4.71,0-8.533,3.823-8.533,8.533v18.185l-37.931-25.284c-1.408-0.93-3.055-1.434-4.736-1.434H42.667 C37.956,281.6,34.133,277.777,34.133,273.067z M358.4,460.8H153.6c-9.429,0-17.067-7.637-17.067-17.067V409.6h238.933v34.133 C375.467,453.163,367.829,460.8,358.4,460.8z M477.867,196.267v119.467c0,4.71-3.823,8.533-8.533,8.533h-93.867 c-1.681,0-3.328,0.503-4.736,1.434L332.8,350.985V332.8c0-4.71-3.823-8.533-8.533-8.533h-25.6c-4.71,0-8.533-3.823-8.533-8.533 V196.267c0-4.71,3.823-8.533,8.533-8.533h170.667C474.044,187.733,477.867,191.556,477.867,196.267z M298.667,170.667 c-14.14,0-25.6,11.46-25.6,25.6v119.467c0,14.14,11.46,25.6,25.6,25.6h17.067v25.6c0,4.71,3.823,8.533,8.533,8.533 c1.69,0,3.337-0.495,4.736-1.434l46.464-30.993v49.493H136.533v-92.16l46.464,30.976c3.917,2.62,9.216,1.562,11.836-2.364 c0.93-1.399,1.434-3.038,1.434-4.719v-25.6h17.067c14.14,0,25.6-11.46,25.6-25.6v-102.4c0-14.14-11.46-25.6-25.6-25.6h-76.8v-25.6 h238.933v51.2H298.667z M375.467,68.267V102.4H136.533V68.267c0-9.429,7.637-17.067,17.067-17.067h204.8 C367.829,51.2,375.467,58.837,375.467,68.267z"></path><linearGradient id="SVGID_9_" gradientUnits="userSpaceOnUse" x1="-29.7578" y1="637.7109" x2="-29.7578" y2="570.7009" gradientTransform="matrix(8.5333 0 0 -8.5333 369.1334 5433.2671)"><stop offset="0" style="stop-color:#FC5C7D"></stop><stop offset="0.129" style="stop-color:#F35E85"></stop><stop offset="0.343" style="stop-color:#D9659B"></stop><stop offset="0.616" style="stop-color:#B070BF"></stop><stop offset="0.934" style="stop-color:#777FF0"></stop><stop offset="1" style="stop-color:#6A82FB"></stop></linearGradient><path style="fill:url(#SVGID_9_);" d="M85.333,452.267c0.034,32.973,26.761,59.699,59.733,59.733v-17.067 c-23.552-0.026-42.641-19.115-42.667-42.667V384H85.333V452.267z"></path><linearGradient id="SVGID_10_" gradientUnits="userSpaceOnUse" x1="-32.2578" y1="637.7109" x2="-32.2578" y2="570.7009" gradientTransform="matrix(8.5333 0 0 -8.5333 369.1334 5433.2671)"><stop offset="0" style="stop-color:#FC5C7D"></stop><stop offset="0.129" style="stop-color:#F35E85"></stop><stop offset="0.343" style="stop-color:#D9659B"></stop><stop offset="0.616" style="stop-color:#B070BF"></stop><stop offset="0.934" style="stop-color:#777FF0"></stop><stop offset="1" style="stop-color:#6A82FB"></stop></linearGradient><rect x="85.333" y="349.867" style="fill:url(#SVGID_10_);" width="17.067" height="17.067"></rect><linearGradient id="SVGID_11_" gradientUnits="userSpaceOnUse" x1="1.7422" y1="637.7109" x2="1.7422" y2="570.7009" gradientTransform="matrix(8.5333 0 0 -8.5333 369.1334 5433.2671)"><stop offset="0" style="stop-color:#FC5C7D"></stop><stop offset="0.129" style="stop-color:#F35E85"></stop><stop offset="0.343" style="stop-color:#D9659B"></stop><stop offset="0.616" style="stop-color:#B070BF"></stop><stop offset="0.934" style="stop-color:#777FF0"></stop><stop offset="1" style="stop-color:#6A82FB"></stop></linearGradient><path style="fill:url(#SVGID_11_);" d="M426.667,59.733C426.633,26.761,399.906,0.034,366.933,0h-25.6v17.067h25.6 c23.552,0.026,42.641,19.115,42.667,42.667V102.4h17.067V59.733z"></path><linearGradient id="SVGID_12_" gradientUnits="userSpaceOnUse" x1="5.7422" y1="637.7109" x2="5.7422" y2="570.7009" gradientTransform="matrix(8.5333 0 0 -8.5333 369.1334 5433.2671)"><stop offset="0" style="stop-color:#FC5C7D"></stop><stop offset="0.129" style="stop-color:#F35E85"></stop><stop offset="0.343" style="stop-color:#D9659B"></stop><stop offset="0.616" style="stop-color:#B070BF"></stop><stop offset="0.934" style="stop-color:#777FF0"></stop><stop offset="1" style="stop-color:#6A82FB"></stop></linearGradient><rect x="409.6" y="119.467" style="fill:url(#SVGID_12_);" width="17.067" height="17.067"></rect><linearGradient id="SVGID_13_" gradientUnits="userSpaceOnUse" x1="1.7422" y1="637.7109" x2="1.7422" y2="570.7009" gradientTransform="matrix(8.5333 0 0 -8.5333 369.1334 5433.2671)"><stop offset="0" style="stop-color:#FC5C7D"></stop><stop offset="0.129" style="stop-color:#F35E85"></stop><stop offset="0.343" style="stop-color:#D9659B"></stop><stop offset="0.616" style="stop-color:#B070BF"></stop><stop offset="0.934" style="stop-color:#777FF0"></stop><stop offset="1" style="stop-color:#6A82FB"></stop></linearGradient><path style="fill:url(#SVGID_13_);" d="M341.333,281.6H358.4v17.067c0,4.71,3.823,8.533,8.533,8.533h34.133 c4.71,0,8.533-3.823,8.533-8.533V281.6h17.067c4.71,0,8.533-3.823,8.533-8.533v-34.133c0-4.71-3.823-8.533-8.533-8.533H409.6 v-17.067c0-4.71-3.823-8.533-8.533-8.533h-34.133c-4.71,0-8.533,3.823-8.533,8.533V230.4h-17.067c-4.71,0-8.533,3.823-8.533,8.533 v34.133C332.8,277.777,336.623,281.6,341.333,281.6z M349.867,247.467h17.067c4.71,0,8.533-3.823,8.533-8.533v-17.067h17.067 v17.067c0,4.71,3.823,8.533,8.533,8.533h17.067v17.067h-17.067c-4.71,0-8.533,3.823-8.533,8.533v17.067h-17.067v-17.067 c0-4.71-3.823-8.533-8.533-8.533h-17.067V247.467z"></path></g></svg>