<!-- icon666.com - MILLIONS vector ICONS FREE --><svg id="Layer_1" enable-background="new 0 0 68 68" viewBox="0 0 68 68" xmlns="http://www.w3.org/2000/svg"><g><g><g><g><path d="m65.2503 11.9915v44.0174c0 2.3536-1.908 4.2616-4.2616 4.2616h-18.906c-2.3536 0-4.2616-1.908-4.2616-4.2616v-44.0174c0-2.3536 1.908-4.2616 4.2616-4.2616h18.906c2.3536-.0001 4.2616 1.9079 4.2616 4.2616z" fill="#0e4a77"></path></g><g><path d="m65.2503 11.9886v44.0175c0 2.3551-1.9065 4.2616-4.2616 4.2616h-18.906c-2.3551 0-4.2616-1.9065-4.2616-4.2616v-.0467c.0655.0094.131.0094.1964.0094h18.906c2.3551 0 4.2614-1.9065 4.2614-4.2616v-43.9709c2.2618.0935 4.0654 1.9626 4.0654 4.2523z" fill="#043b63"></path></g><g><path d="m55.0141 48.0614c0 1.9156-1.5517 3.4748-3.4748 3.4748s-3.4822-1.5592-3.4822-3.4748c0-1.923 1.5591-3.4822 3.4822-3.4822s3.4748 1.5592 3.4748 3.4822z" fill="#dfe9f4"></path></g></g><g><path d="m45.6982 24.6029v24.282c0 2.4032-1.9482 4.3513-4.3513 4.3513h-34.2453c-2.4032 0-4.3513-1.9482-4.3513-4.3513v-24.282c0-2.4032 1.9482-4.3513 4.3513-4.3513h34.2452c2.4032 0 4.3514 1.9481 4.3514 4.3513z" fill="#dfe9f4"></path></g><g><path d="m2.7503 45.4095v3.4755c0 2.4031 1.9481 4.3513 4.3513 4.3513h34.2452c2.4032 0 4.3513-1.9482 4.3513-4.3513v-3.4755z" fill="#2dcef6"></path></g><path d="m16.089 53.236h16.27v7.034h-16.27z" fill="#2dcef6"></path><g fill="#003"><path d="m65.25 20.2012c.5527 0 1-.4473 1-1v-7.21c0-2.9014-2.3604-5.2617-5.2617-5.2617h-18.9053c-2.9014 0-5.2617 2.3604-5.2617 5.2617v7.2607h-10.7725c-.5527 0-1 .4473-1 1s.4473 1 1 1h15.2979c1.8477 0 3.3516 1.5029 3.3516 3.3506v19.8066h-29.7422c-.5527 0-1 .4473-1 1s.4473 1 1 1h29.7422v2.4756c0 1.8477-1.5039 3.3516-3.3516 3.3516-10.0337 0-18.1466 0-34.2451 0-1.8477 0-3.3516-1.5039-3.3516-3.3516v-2.3643-.1113h5.4219c.5527 0 1-.4473 1-1s-.4473-1-1-1h-5.4219v-19.8066c0-1.8477 1.5039-3.3506 3.3516-3.3506h13.4072c.5527 0 1-.4473 1-1s-.4473-1-1-1h-13.4072c-2.9512 0-5.3516 2.4004-5.3516 5.3506v24.2822c0 2.9512 2.4004 5.3516 5.3516 5.3516h7.9873v5.0342h-1.9297c-.5527 0-1 .4473-1 1s.4473 1 1 1h22.1309c.5527 0 1-.4473 1-1s-.4473-1-1-1h-1.9307v-5.0342h3.4619v1.7725c0 2.9014 2.3604 5.2617 5.2617 5.2617h18.9053c2.9014 0 5.2617-2.3604 5.2617-5.2617v-31.791c0-.5527-.4473-1-1-1s-1 .4473-1 1v31.791c0 1.7988-1.4629 3.2617-3.2617 3.2617h-18.9053c-1.7988 0-3.2617-1.4629-3.2617-3.2617v-1.7725h2.5254c2.9512 0 5.3516-2.4004 5.3516-5.3516 0-5.4733 0-6.5114 0-12.9658h12.8828c.5527 0 1-.4473 1-1s-.4473-1-1-1h-12.8829v-4.6973h12.8828c.5527 0 1-.4473 1-1s-.4473-1-1-1h-12.8828v-2.6191c0-.7363-.1499-1.4381-.4199-2.0771h13.3027c.5527 0 1-.4473 1-1s-.4473-1-1-1h-14.81c-.9307-.7828-2.1155-1.2734-3.4243-1.2734h-2.5254v-7.2607c0-1.7988 1.4629-3.2617 3.2617-3.2617h18.9053c1.7988 0 3.2617 1.4629 3.2617 3.2617v7.21c0 .5526.4473.9999 1 .9999zm-33.8906 39.0693h-14.2705v-5.0342h14.2705z"></path><path d="m43.8701 13.8281c-.5527 0-1 .4473-1 1s.4473 1 1 1h15.7109c.5527 0 1-.4473 1-1s-.4473-1-1-1z"></path><path d="m51.5391 45.5791c.2041 0 .4072.0244.6035.0742.542.126 1.0791-.1934 1.2129-.7285.1328-.5361-.1934-1.0791-.7285-1.2129-.3555-.0879-.7207-.1328-1.0879-.1328-2.4707 0-4.4814 2.0107-4.4814 4.4824 0 2.4678 2.0107 4.4746 4.4814 4.4746 2.4678 0 4.4746-2.0068 4.4746-4.4746 0-.3633-.043-.7236-.1279-1.0713-.1318-.5381-.6807-.8672-1.209-.7344-.5371.1318-.8652.6729-.7344 1.209.0479.1924.0713.3936.0713.5967 0 1.3643-1.1104 2.4746-2.4746 2.4746-1.3682 0-2.4814-1.1104-2.4814-2.4746-.0001-1.3691 1.1132-2.4824 2.4814-2.4824z"></path><path d="m26.0488 49.9912c.5527 0 1-.4473 1-1s-.4473-1-1-1h-3.6494c-.5527 0-1 .4473-1 1s.4473 1 1 1z"></path></g></g></g></svg>