<svg width="141" height="143" viewBox="0 0 141 143" fill="none" xmlns="http://www.w3.org/2000/svg">
<path d="M107.254 89.7036C106.781 89.0739 106.508 88.2854 106.435 87.3381C106.371 86.4175 106.575 85.4715 107.047 84.5001C107.562 83.4387 108.175 82.5909 108.883 81.9567C109.601 81.3493 110.392 80.9333 111.257 80.7087C112.14 80.493 113.079 80.4599 114.073 80.6096C115.077 80.786 116.11 81.1321 117.171 81.6478C119.456 82.7578 120.93 84.1632 121.593 85.8641C122.275 87.5738 122.148 89.391 121.213 91.3159C120.784 92.1973 120.323 92.9405 119.829 93.5455C119.344 94.1771 118.858 94.6746 118.37 95.038C117.803 94.6956 117.185 94.2733 116.518 93.771C115.85 93.2687 115.326 92.7917 114.945 92.3398L115.299 91.6113L119.061 92.0381C119.212 91.9558 119.345 91.8425 119.459 91.6981C119.592 91.5624 119.75 91.3057 119.933 90.9279C120.528 89.7047 120.537 88.5417 119.961 87.4391C119.403 86.3452 118.062 85.2826 115.94 84.2513C115.256 83.9192 114.547 83.6857 113.812 83.551C113.068 83.4342 112.344 83.438 111.638 83.5623C110.942 83.7133 110.302 84.0024 109.716 84.4294C109.122 84.8745 108.637 85.4838 108.261 86.2573C107.955 86.887 107.778 87.4793 107.731 88.0344C107.684 88.5896 107.707 89.0902 107.802 89.5364L107.254 89.7036Z" fill="url(#paint0_linear_2_397)"/>
<path d="M106.738 108.507C106.825 108.272 106.872 107.9 106.879 107.39C106.884 106.908 106.748 106.311 106.472 105.597L100.621 98.8768C100.293 99.1092 99.939 99.3116 99.5585 99.4837C99.1912 99.6709 98.7844 99.8129 98.3383 99.9096L97.8458 99.344L103.186 94.695L103.678 95.2607C103.538 95.6479 103.38 95.9843 103.204 96.2698C103.029 96.5554 102.846 96.8334 102.658 97.1038L110.399 105.996L112.05 104.877L112.562 105.465C112.264 106.097 111.91 106.696 111.502 107.263C111.108 107.845 110.709 108.378 110.307 108.86L109.742 109.353L107.654 106.954L107.563 107.033C107.69 107.453 107.764 107.919 107.785 108.431C107.792 108.956 107.742 109.477 107.635 109.994C107.513 110.524 107.316 111.014 107.044 111.463C106.77 111.94 106.41 112.333 105.963 112.642C105.687 112.538 105.406 112.398 105.12 112.223C104.833 112.075 104.54 111.906 104.241 111.715L103.729 111.127L106.738 108.507Z" fill="url(#paint1_linear_2_397)"/>
<path d="M80.7814 111.334C80.8539 110.965 81.0186 110.594 81.2754 110.22C81.5322 109.847 81.8473 109.5 82.2206 109.179C82.5939 108.859 83.0181 108.577 83.4933 108.334C83.9637 108.072 84.4607 107.875 84.9845 107.744C86.1291 107.457 87.1817 107.379 88.1422 107.509C89.1076 107.659 89.964 107.99 90.7113 108.504C91.4635 109.037 92.1116 109.73 92.6554 110.584C93.1799 111.442 93.588 112.453 93.8798 113.617C94.5024 116.1 94.4043 118.135 93.5856 119.722C92.7669 121.309 91.31 122.365 89.2149 122.89C88.5359 123.06 87.8423 123.131 87.134 123.102C86.4307 123.093 85.7733 122.938 85.1619 122.638C84.5311 122.342 83.9706 121.875 83.4802 121.235C82.9753 120.619 82.5915 119.787 82.3289 118.74C82.2462 118.41 82.1805 118.066 82.1317 117.707C82.0685 117.372 82.027 117.001 82.0073 116.594L91.0863 114.317C90.882 113.503 90.5929 112.761 90.219 112.091C89.8305 111.447 89.3669 110.913 88.8282 110.492C88.2894 110.07 87.6708 109.782 86.9722 109.627C86.2784 109.492 85.5145 109.529 84.6803 109.738C84.0013 109.908 83.3369 110.178 82.6872 110.547C82.0374 110.916 81.5769 111.299 81.3055 111.697L80.7814 111.334ZM89.0102 121.58C90.116 121.303 90.8651 120.713 91.2574 119.811C91.6545 118.928 91.6754 117.531 91.32 115.62L84.9182 117.225C84.9425 117.404 84.9742 117.571 85.0131 117.727C85.0375 117.906 85.0691 118.073 85.108 118.229C85.4193 119.47 85.9001 120.401 86.5506 121.022C87.201 121.642 88.0209 121.828 89.0102 121.58Z" fill="url(#paint2_linear_2_397)"/>
<path d="M61.7249 113.655C61.8287 113.227 61.9086 112.855 61.9646 112.54C62.0206 112.224 62.0813 111.889 62.1468 111.534L60.2059 110.755L60.3545 110.142C60.9017 110.008 61.5001 109.916 62.1498 109.868C62.78 109.815 63.379 109.806 63.9468 109.841L64.6757 110.018C64.7616 110.512 64.7603 111.026 64.6718 111.56C64.5786 112.114 64.464 112.714 64.3278 113.36L64.4735 113.395C64.6456 113.026 64.8978 112.665 65.23 112.313C65.5382 111.976 65.9146 111.697 66.3593 111.476C66.7846 111.25 67.2638 111.099 67.7969 111.022C68.3299 110.946 68.9074 110.983 69.5294 111.134C70.715 111.421 71.5995 112.017 72.1831 112.92C72.7471 113.818 72.8877 114.851 72.6047 116.017C72.3878 116.911 72.036 117.597 71.5494 118.076C71.0386 118.569 70.3933 118.896 69.6134 119.057C68.8336 119.218 67.9121 119.241 66.8489 119.127C65.7811 119.033 64.5575 118.859 63.1781 118.607C62.8976 119.424 62.6966 120.167 62.5751 120.838C62.4295 121.523 62.3972 122.122 62.4784 122.635C62.5354 123.164 62.7179 123.599 63.0259 123.941C63.3097 124.298 63.7432 124.548 64.3263 124.689C64.5984 124.755 64.9141 124.811 65.2733 124.857C65.6085 124.918 65.9577 124.92 66.3212 124.864L68.5403 121.698L69.2983 121.882C69.3512 122.513 69.3799 123.158 69.3845 123.817C69.3696 124.472 69.3085 125.106 69.2012 125.718C68.3542 125.985 67.453 126.137 66.4976 126.173C65.5228 126.204 64.4815 126.085 63.3736 125.816C62.3824 125.576 61.6306 125.239 61.1182 124.806C60.5818 124.388 60.2123 123.917 60.0097 123.395C59.8072 122.872 59.7234 122.327 59.7583 121.759C59.7932 121.192 59.8766 120.636 60.0087 120.091C60.2916 118.925 60.5943 117.805 60.9167 116.731C61.215 115.671 61.4844 114.646 61.7249 113.655ZM67.9246 112.658C67.4387 112.54 66.9876 112.534 66.5711 112.639C66.1547 112.743 65.7871 112.901 65.4684 113.112C65.1497 113.323 64.8796 113.545 64.6581 113.78C64.4319 114.034 64.266 114.251 64.1606 114.431L63.4178 117.492C64.5451 117.765 65.4824 117.931 66.2298 117.989C66.9773 118.047 67.5857 117.999 68.0552 117.845C68.5247 117.692 68.8843 117.44 69.1341 117.089C69.3792 116.757 69.5607 116.348 69.6786 115.862C69.8814 115.027 69.8256 114.324 69.5112 113.753C69.1921 113.203 68.6632 112.838 67.9246 112.658Z" fill="url(#paint3_linear_2_397)"/>
<path d="M46.1001 120.015C45.2044 119.94 44.3612 119.729 43.5704 119.382L42.033 121.416C41.6929 121.435 41.339 121.406 40.9713 121.328C40.5756 121.255 40.1939 121.179 39.8261 121.102L39.2278 120.65L41.5972 117.515L38.0071 114.801L38.9115 113.605L42.5016 116.318L47.7469 109.377C48.4704 108.419 48.8313 107.627 48.8296 106.999C48.8279 106.371 48.5238 105.828 47.9175 105.369C47.6303 105.152 47.2592 104.897 46.8043 104.603C46.3373 104.326 45.91 104.128 45.5224 104.011L45.6262 103.525C45.8624 103.478 46.1604 103.465 46.5204 103.486C46.8643 103.496 47.2422 103.543 47.6539 103.628C48.0496 103.702 48.4591 103.823 48.8825 103.993C49.3059 104.163 49.7011 104.386 50.0681 104.663C51.0255 105.387 51.5545 106.213 51.6551 107.141C51.7397 108.057 51.3239 109.122 50.4074 110.335L44.6557 117.946L46.5704 119.393L46.1001 120.015Z" fill="url(#paint4_linear_2_397)"/>
<path d="M37.5974 92.7381L41.1312 98.3832L40.4955 98.7812C40.2007 98.6118 39.926 98.418 39.6715 98.1998C39.4 97.9923 39.121 97.754 38.8346 97.4849L28.8412 103.741L29.6884 105.546L29.0273 105.96C28.5161 105.596 28.0038 105.173 27.4904 104.693C26.977 104.212 26.4891 103.715 26.0265 103.202L25.6286 102.567L37.402 95.1964C37.2745 94.8043 37.1767 94.4407 37.1086 94.1058C37.0236 93.7815 36.9746 93.4583 36.9617 93.136L37.5974 92.7381ZM23.346 107.853C22.8883 108.14 22.4336 108.224 21.9819 108.106C21.5197 107.97 21.1347 107.657 20.8269 107.165C20.5192 106.673 20.4107 106.199 20.5015 105.741C20.5924 105.283 20.8666 104.91 21.3244 104.624C21.7821 104.337 22.2367 104.253 22.6884 104.372C23.1231 104.501 23.4943 104.811 23.8021 105.303C24.1098 105.794 24.2321 106.272 24.1688 106.737C24.078 107.195 23.8037 107.567 23.346 107.853Z" fill="url(#paint5_linear_2_397)"/>
<path d="M32.5208 82.0086L19.2607 89.1145C19.1152 89.7105 18.9252 90.2604 18.6908 90.7642L17.9141 90.8363L17.3346 84.5931L18.0814 84.5238C18.2449 84.7698 18.4092 85.0257 18.5745 85.2915C18.718 85.5393 18.8553 85.8279 18.9863 86.1572L27.656 81.8575L29.4526 81.0882L29.447 81.0285L27.5235 80.7551L18.2654 78.3906C18.2153 78.7166 18.1435 79.0245 18.0499 79.3144C17.9544 79.5844 17.8381 79.8463 17.701 80.1L16.9243 80.1721L16.453 75.094L17.2296 75.0219C17.3875 75.2081 17.5401 75.445 17.6873 75.7326C17.8326 76.0003 17.9717 76.3088 18.1046 76.658L32.0376 80.6976L32.5208 82.0086Z" fill="url(#paint6_linear_2_397)"/>
<path d="M32.1422 56.3962C32.3951 56.6741 32.5951 57.0275 32.7422 57.4565C32.8892 57.8854 32.9802 58.3452 33.0151 58.8359C33.05 59.3266 33.0234 59.8351 32.9353 60.3615C32.8656 60.8954 32.7275 61.4119 32.5208 61.9108C32.0693 63.001 31.505 63.8929 30.8281 64.5867C30.1326 65.2728 29.3559 65.7629 28.4981 66.057C27.6218 66.3435 26.6789 66.4509 25.6695 66.3792C24.6678 66.289 23.6126 66.0143 22.5039 65.5551C20.1388 64.5755 18.563 63.2842 17.7765 61.6813C16.99 60.0783 17.01 58.279 17.8366 56.2834C18.1044 55.6367 18.4609 55.0375 18.9059 54.4858C19.3324 53.9264 19.8484 53.4907 20.4539 53.1786C21.067 52.8481 21.7766 52.6766 22.5828 52.6641C23.3781 52.6255 24.2746 52.8129 25.2724 53.2261C25.5866 53.3562 25.9023 53.5086 26.2196 53.6834C26.526 53.8319 26.8487 54.0197 27.1877 54.2467L23.606 62.8943C24.3821 63.2157 25.1502 63.4256 25.9104 63.524C26.6598 63.5963 27.3643 63.5417 28.0239 63.3603C28.6835 63.1789 29.2836 62.8538 29.8242 62.385C30.3462 61.9085 30.7718 61.273 31.1009 60.4784C31.3687 59.8317 31.548 59.1375 31.6388 58.3957C31.7295 57.654 31.6959 57.0556 31.5381 56.6006L32.1422 56.3962ZM19.0102 56.8994C18.574 57.9526 18.6014 58.9057 19.0924 59.7585C19.565 60.6036 20.6745 61.4528 22.4209 62.306L24.9464 56.2084C24.7878 56.121 24.6346 56.0467 24.4867 55.9855C24.3281 55.8981 24.1749 55.8238 24.027 55.7626C22.8445 55.2728 21.8103 55.1042 20.9244 55.2569C20.0386 55.4095 19.4005 55.957 19.0102 56.8994Z" fill="url(#paint7_linear_2_397)"/>
<path d="M44.3454 37.9324C44.0328 37.4678 43.6211 37.1784 43.1103 37.0641C42.6049 36.9221 42.0332 36.8607 41.3954 36.8801C40.7576 36.8995 40.0922 36.9496 39.3991 37.0302C38.7227 37.0997 38.0432 37.111 37.3607 37.064C36.6671 37.0004 36.0146 36.8368 35.4033 36.5732C34.8086 36.2984 34.2823 35.8209 33.8245 35.1406C33.523 34.6926 33.3434 34.2107 33.2857 33.6951C33.2446 33.1683 33.309 32.6549 33.4788 32.155C33.6374 31.6384 33.8988 31.1491 34.2629 30.6872C34.6158 30.2086 35.0578 29.7906 35.5888 29.4333C36.4848 28.8304 37.2484 28.3889 37.8795 28.1088C38.5273 27.8176 39.178 27.5845 39.8318 27.4098C40.1228 27.9854 40.4027 28.5805 40.6716 29.1951C40.946 29.7819 41.19 30.4132 41.4037 31.089L40.7815 31.5077L38.1273 29.6054C37.8723 29.6565 37.6148 29.7574 37.3548 29.9083C37.0836 30.0426 36.8152 30.1991 36.5497 30.3777C36.251 30.5787 36.0246 30.8155 35.8705 31.0879C35.7218 31.3326 35.6203 31.5938 35.566 31.8714C35.5283 32.1378 35.5406 32.4068 35.6028 32.6783C35.665 32.9498 35.7686 33.1935 35.9138 33.4092C36.2153 33.8572 36.6187 34.1522 37.1241 34.2943C37.6349 34.4085 38.2093 34.456 38.8471 34.4366C39.4737 34.4006 40.1253 34.3479 40.8017 34.2784C41.4948 34.1977 42.177 34.1726 42.8483 34.203C43.5196 34.2333 44.147 34.3776 44.7306 34.6358C45.3196 34.8663 45.8206 35.2884 46.2338 35.9024C46.6134 36.4665 46.8295 37.0564 46.8821 37.6719C46.9513 38.2762 46.8762 38.8811 46.657 39.4867C46.4543 40.0811 46.1267 40.6511 45.6742 41.1967C45.2495 41.7477 44.7218 42.2353 44.0913 42.6596C43.3778 43.1398 42.6777 43.5144 41.991 43.7837C41.3155 44.0695 40.5761 44.314 39.7726 44.5171C39.4038 43.8974 39.0933 43.2747 38.841 42.649C38.5775 42.0067 38.3639 41.3669 38.2003 40.7297L38.8225 40.311L41.7433 42.287C42.0151 42.2969 42.2811 42.2265 42.5411 42.0756C42.8178 41.9135 43.064 41.7599 43.2797 41.6147C44.0098 41.1234 44.4648 40.5279 44.6449 39.8282C44.8249 39.1285 44.7251 38.4966 44.3454 37.9324Z" fill="url(#paint8_linear_2_397)"/>
<path d="M50.5599 21.0894C51.2165 20.4755 51.9387 19.9916 52.7263 19.6378L52.2485 17.1329C52.4627 16.8681 52.7218 16.6253 53.0258 16.4044C53.3457 16.1602 53.6577 15.9276 53.9617 15.7067L54.6984 15.5662L55.4347 19.4266L59.855 18.5835L60.1361 20.0569L55.7157 20.9L57.3458 29.446C57.5706 30.6247 57.9165 31.4241 58.3834 31.844C58.8504 32.264 59.4571 32.4028 60.2037 32.2604C60.5573 32.1929 60.9956 32.089 61.5185 31.9485C62.0377 31.7884 62.4708 31.604 62.8179 31.3952L63.1085 31.7979C62.985 32.0047 62.7947 32.2345 62.5375 32.4871C62.2999 32.736 62.0114 32.9845 61.6718 33.2325C61.3519 33.4768 60.9871 33.6991 60.5774 33.8994C60.1677 34.0997 59.7369 34.2429 59.285 34.3291C58.1063 34.554 57.1389 34.3923 56.3828 33.8443C55.6464 33.2925 55.1358 32.2701 54.851 30.777L53.0636 21.4059L50.7061 21.8556L50.5599 21.0894Z" fill="url(#paint9_linear_2_397)"/>
<path d="M71.6988 24.6289C72.0967 23.4334 72.5137 22.2758 72.9497 21.1562C73.3919 20.0176 73.8026 18.879 74.1816 17.7405L72.3788 16.8874L72.6251 16.1473C73.3082 16.1217 73.9912 16.1278 74.6743 16.1655C75.3763 16.2095 76.0499 16.2756 76.6951 16.3639L77.4067 16.6008C76.9329 18.024 76.4338 19.4282 75.9094 20.8135C75.385 22.1988 74.8922 23.5841 74.4311 24.9693C74.1847 25.7094 74.0016 26.3862 73.8817 26.9997C73.7807 27.6196 73.7683 28.1635 73.8444 28.6315C73.9394 29.1058 74.1388 29.52 74.4425 29.874C74.7525 30.2091 75.2017 30.4746 75.79 30.6704C76.6439 30.9547 77.4566 30.8879 78.228 30.4702C79.0247 30.0398 79.7486 29.385 80.3997 28.5056L83.0055 20.6779L81.2311 19.8343L81.4775 19.0942C82.1416 19.0623 82.8151 19.0652 83.4982 19.1029C84.2003 19.1469 84.8738 19.2131 85.519 19.3013L86.2306 19.5382L81.9192 32.4895L83.722 33.3426L83.523 33.9403C82.8906 34.0038 82.2581 34.0357 81.6257 34.0359C81.0122 34.0425 80.3861 33.9921 79.7472 33.8849L79.0356 33.648L79.964 30.1944L79.8501 30.1565C79.6226 30.5234 79.316 30.8746 78.9303 31.2099C78.5699 31.5326 78.1431 31.8016 77.6499 32.0168C77.163 32.213 76.6381 32.3334 76.0752 32.3779C75.5313 32.4287 74.9748 32.3594 74.4055 32.1699C73.6464 31.9172 73.0044 31.598 72.4793 31.2124C71.9668 30.8521 71.5872 30.378 71.3403 29.7899C71.0934 29.2018 70.9919 28.4935 71.0359 27.6649C71.0861 26.8174 71.3071 25.8054 71.6988 24.6289Z" fill="url(#paint10_linear_2_397)"/>
<path d="M98.3652 40.0451C97.9749 40.2715 97.5516 40.433 97.0952 40.5297C96.6388 40.6263 96.1709 40.6517 95.6914 40.606C95.2402 40.5613 94.7921 40.4318 94.347 40.2175C93.9156 40.0178 93.5228 39.7276 93.1687 39.3468C91.8204 37.8968 91.274 36.3839 91.5294 34.8083C91.7848 33.2326 92.8865 31.5391 94.8345 29.7277C96.7092 27.9845 98.5595 27.1107 100.385 27.1063C102.224 27.1165 103.866 27.8979 105.31 29.4505C105.813 29.9924 106.179 30.4444 106.407 30.8064C106.649 31.1549 106.874 31.5735 107.083 32.0622L111.235 28.2012L109.858 26.3681L110.429 25.8369C111 26.0982 111.61 26.4459 112.259 26.8799C112.922 27.3285 113.536 27.7683 114.101 28.1992L114.611 28.7485L99.3423 42.9463L100.515 44.5598L100.054 44.9888C99.4535 44.7547 98.8692 44.4787 98.3005 44.1609C97.7319 43.843 97.214 43.4916 96.7468 43.1067L96.2361 42.5575L98.4469 40.133L98.3652 40.0451ZM94.9394 38.5196C95.6067 39.2373 96.3649 39.5974 97.2139 39.6C98.0629 39.6025 98.9504 39.3235 99.8765 38.7628L106.072 33.0019C105.987 32.6167 105.817 32.2285 105.562 31.8371C105.308 31.4458 104.935 30.9865 104.445 30.4592C103.519 29.4632 102.371 29.1102 101.002 29.4C99.6478 29.6763 98.2456 30.4886 96.7956 31.8368C96.1951 32.3952 95.6789 32.9708 95.2469 33.5636C94.8296 34.1428 94.5254 34.7261 94.3342 35.3135C94.1431 35.9009 94.0801 36.4647 94.1454 37.0048C94.2389 37.546 94.5036 38.0509 94.9394 38.5196Z" fill="url(#paint11_linear_2_397)"/>
<path d="M106.445 56.7182L104.012 50.5185L104.71 50.2445C104.969 50.4653 105.203 50.7064 105.413 50.9678C105.642 51.2218 105.872 51.5074 106.104 51.8246L117.079 47.5177L116.579 45.5868L117.305 45.3019C117.741 45.7541 118.166 46.2639 118.582 46.8311C118.998 47.3984 119.386 47.9766 119.746 48.5657L120.02 49.2639L107.09 54.338C107.143 54.7469 107.172 55.1222 107.178 55.464C107.201 55.7984 107.19 56.1251 107.143 56.4442L106.445 56.7182ZM123.238 44.4884C123.741 44.2911 124.203 44.2923 124.625 44.4919C125.055 44.7101 125.375 45.0891 125.587 45.6291C125.799 46.169 125.818 46.6556 125.645 47.089C125.471 47.5224 125.133 47.8378 124.63 48.035C124.127 48.2323 123.665 48.2311 123.243 48.0315C122.839 47.8246 122.532 47.4512 122.32 46.9113C122.108 46.3714 122.076 45.8791 122.224 45.4344C122.397 45.001 122.736 44.6856 123.238 44.4884Z" fill="url(#paint12_linear_2_397)"/>
<path d="M116.168 55.5227C117.427 55.4644 118.543 55.5728 119.517 55.8481C120.512 56.1423 121.353 56.5839 122.041 57.1726C122.749 57.7605 123.293 58.4761 123.672 59.3194C124.072 60.1818 124.297 61.1425 124.346 62.2013C124.404 63.44 124.263 64.5176 123.925 65.4343C123.587 66.3509 123.082 67.1051 122.408 67.6969C121.756 68.3078 120.956 68.7653 120.009 69.0694C119.063 69.3936 118.001 69.583 116.822 69.6376C114.305 69.7542 112.337 69.2047 110.92 67.9891C109.502 66.7734 108.743 65.0867 108.643 62.929C108.587 61.7303 108.719 60.6831 109.038 59.7874C109.377 58.8907 109.872 58.137 110.525 57.5261C111.197 56.9143 112.006 56.4364 112.951 56.0923C113.917 55.7672 114.989 55.5774 116.168 55.5227ZM116.302 58.3996C115.403 58.4413 114.557 58.5606 113.765 58.7574C112.975 58.9743 112.288 59.2764 111.705 59.6638C111.143 60.0702 110.707 60.581 110.395 61.1961C110.083 61.8112 109.946 62.5383 109.985 63.3774C110.035 64.4562 110.605 65.3107 111.696 65.9409C112.787 66.5911 114.451 66.8644 116.689 66.7607C117.608 66.7181 118.453 66.5888 119.224 66.3729C120.016 66.1761 120.693 65.8844 121.255 65.4979C121.838 65.1105 122.286 64.6293 122.6 64.0541C122.914 63.479 123.053 62.8018 123.016 62.0227C122.962 60.8439 122.388 59.9195 121.296 59.2493C120.204 58.5792 118.539 58.2959 116.302 58.3996Z" fill="url(#paint13_linear_2_397)"/>
<defs>
<linearGradient id="paint0_linear_2_397" x1="135.792" y1="97.0959" x2="99.8142" y2="79.6156" gradientUnits="userSpaceOnUse">
<stop stop-color="#2300F7"/>
<stop offset="1" stop-color="#E9A800"/>
</linearGradient>
<linearGradient id="paint1_linear_2_397" x1="119.901" y1="121.245" x2="93.6355" y2="91.0766" gradientUnits="userSpaceOnUse">
<stop stop-color="#2300F7"/>
<stop offset="1" stop-color="#E9A800"/>
</linearGradient>
<linearGradient id="paint2_linear_2_397" x1="93.4704" y1="137.947" x2="83.7428" y2="99.1478" gradientUnits="userSpaceOnUse">
<stop stop-color="#2300F7"/>
<stop offset="1" stop-color="#E9A800"/>
</linearGradient>
<linearGradient id="paint3_linear_2_397" x1="59.9351" y1="141.076" x2="69.3673" y2="102.204" gradientUnits="userSpaceOnUse">
<stop stop-color="#2300F7"/>
<stop offset="1" stop-color="#E9A800"/>
</linearGradient>
<linearGradient id="paint4_linear_2_397" x1="31.9376" y1="130.27" x2="56.054" y2="98.3572" gradientUnits="userSpaceOnUse">
<stop stop-color="#2300F7"/>
<stop offset="1" stop-color="#E9A800"/>
</linearGradient>
<linearGradient id="paint5_linear_2_397" x1="13.1138" y1="112.05" x2="47.0185" y2="90.8261" gradientUnits="userSpaceOnUse">
<stop stop-color="#2300F7"/>
<stop offset="1" stop-color="#E9A800"/>
</linearGradient>
<linearGradient id="paint6_linear_2_397" x1="1.25224" y1="84.4463" x2="41.0811" y2="80.7496" gradientUnits="userSpaceOnUse">
<stop stop-color="#2300F7"/>
<stop offset="1" stop-color="#E9A800"/>
</linearGradient>
<linearGradient id="paint7_linear_2_397" x1="3.20861" y1="50.7292" x2="40.1642" y2="66.0356" gradientUnits="userSpaceOnUse">
<stop stop-color="#2300F7"/>
<stop offset="1" stop-color="#E9A800"/>
</linearGradient>
<linearGradient id="paint8_linear_2_397" x1="26.9893" y1="16.3688" x2="49.3208" y2="49.5546" gradientUnits="userSpaceOnUse">
<stop stop-color="#2300F7"/>
<stop offset="1" stop-color="#E9A800"/>
</linearGradient>
<linearGradient id="paint9_linear_2_397" x1="52.4531" y1="3.70687" x2="59.9474" y2="42.9985" gradientUnits="userSpaceOnUse">
<stop stop-color="#2300F7"/>
<stop offset="1" stop-color="#E9A800"/>
</linearGradient>
<linearGradient id="paint10_linear_2_397" x1="85.5947" y1="2.8427" x2="72.9605" y2="40.795" gradientUnits="userSpaceOnUse">
<stop stop-color="#2300F7"/>
<stop offset="1" stop-color="#E9A800"/>
</linearGradient>
<linearGradient id="paint11_linear_2_397" x1="116.938" y1="18.8565" x2="87.6451" y2="46.0946" gradientUnits="userSpaceOnUse">
<stop stop-color="#2300F7"/>
<stop offset="1" stop-color="#E9A800"/>
</linearGradient>
<linearGradient id="paint12_linear_2_397" x1="134.069" y1="42.2489" x2="96.8331" y2="56.8612" gradientUnits="userSpaceOnUse">
<stop stop-color="#2300F7"/>
<stop offset="1" stop-color="#E9A800"/>
</linearGradient>
<linearGradient id="paint13_linear_2_397" x1="139.97" y1="61.4883" x2="100.013" y2="63.34" gradientUnits="userSpaceOnUse">
<stop stop-color="#2300F7"/>
<stop offset="1" stop-color="#E9A800"/>
</linearGradient>
</defs>
</svg>
