<svg width="266" height="301" viewBox="0 0 266 301" fill="none" xmlns="http://www.w3.org/2000/svg">
<rect width="266" height="301" rx="15" fill="#474747"/>
<rect width="266" height="301" rx="15" fill="#474747"/>
<rect y="18" width="266" height="29" fill="#BBBBBB"/>
<rect y="58" width="266" height="90" fill="#BBB9B9"/>
<rect x="6" y="174" width="189" height="123" rx="7" fill="#8A6893"/>
<rect x="6" y="174" width="189" height="123" rx="7" fill="#8A6893"/>
<rect x="6" y="174" width="189" height="123" rx="7" fill="#8A6893"/>
<rect x="6" y="174" width="189" height="123" rx="7" fill="#8A6893"/>
<rect x="148" y="86" width="78" height="2" fill="#7B7B7B"/>
<rect x="148" y="86" width="78" height="2" fill="#7B7B7B"/>
<rect x="148" y="86" width="78" height="2" fill="#7B7B7B"/>
<rect x="148" y="75" width="78" height="4" fill="#7B7B7B"/>
<rect x="148" y="75" width="78" height="4" fill="#7B7B7B"/>
<rect x="148" y="75" width="78" height="4" fill="#7B7B7B"/>
<rect x="148" y="96" width="78" height="2" fill="#7B7B7B"/>
<rect x="148" y="96" width="78" height="2" fill="#7B7B7B"/>
<rect x="148" y="96" width="78" height="2" fill="#7B7B7B"/>
<rect x="148" y="111" width="78" height="2" fill="#7B7B7B"/>
<rect x="148" y="111" width="78" height="2" fill="#7B7B7B"/>
<rect x="148" y="111" width="78" height="2" fill="#7B7B7B"/>
<rect x="171" y="86" width="34" height="2" fill="#7B7B7B"/>
<rect x="171" y="86" width="34" height="2" fill="#7B7B7B"/>
<rect x="171" y="86" width="34" height="2" fill="#7B7B7B"/>
<rect x="148" y="91" width="34" height="2" fill="#7B7B7B"/>
<rect x="148" y="91" width="34" height="2" fill="#7B7B7B"/>
<rect x="148" y="91" width="34" height="2" fill="#7B7B7B"/>
<rect x="216" y="29" width="34" height="7" rx="3.5" fill="#7B7B7B"/>
<rect x="216" y="29" width="34" height="7" rx="3.5" fill="#7B7B7B"/>
<rect x="216" y="29" width="34" height="7" rx="3.5" fill="#7B7B7B"/>
<rect x="164" y="29" width="34" height="7" rx="3.5" fill="#7B7B7B"/>
<rect x="164" y="29" width="34" height="7" rx="3.5" fill="#7B7B7B"/>
<rect x="164" y="29" width="34" height="7" rx="3.5" fill="#7B7B7B"/>
<rect x="112" y="29" width="34" height="7" rx="3.5" fill="#7B7B7B"/>
<rect x="112" y="29" width="34" height="7" rx="3.5" fill="#7B7B7B"/>
<rect x="112" y="29" width="34" height="7" rx="3.5" fill="#7B7B7B"/>
<rect x="191" y="101" width="35" height="2" fill="#7B7B7B"/>
<rect x="191" y="101" width="35" height="2" fill="#7B7B7B"/>
<rect x="191" y="101" width="35" height="2" fill="#7B7B7B"/>
<rect x="148" y="101" width="40" height="2" fill="#7B7B7B"/>
<rect x="148" y="101" width="40" height="2" fill="#7B7B7B"/>
<rect x="148" y="101" width="40" height="2" fill="#7B7B7B"/>
<rect x="186" y="106" width="40" height="2" fill="#7B7B7B"/>
<rect x="186" y="106" width="40" height="2" fill="#7B7B7B"/>
<rect x="186" y="106" width="40" height="2" fill="#7B7B7B"/>
<rect x="171" y="101" width="35" height="2" fill="#7B7B7B"/>
<rect x="171" y="101" width="35" height="2" fill="#7B7B7B"/>
<rect x="171" y="101" width="35" height="2" fill="#7B7B7B"/>
<rect x="148" y="116" width="35" height="2" fill="#7B7B7B"/>
<rect x="148" y="116" width="35" height="2" fill="#7B7B7B"/>
<rect x="148" y="116" width="35" height="2" fill="#7B7B7B"/>
<rect x="44" y="211" width="120" height="4" fill="#7B7B7B"/>
<rect x="44" y="211" width="120" height="4" fill="#7B7B7B"/>
<rect x="44" y="211" width="120" height="4" fill="white"/>
<rect x="44" y="187" width="120" height="9" fill="#7B7B7B"/>
<rect x="44" y="187" width="120" height="9" fill="#7B7B7B"/>
<rect x="44" y="187" width="120" height="9" fill="white"/>
<rect x="44" y="232" width="120" height="5" fill="#7B7B7B"/>
<rect x="44" y="232" width="120" height="5" fill="#7B7B7B"/>
<rect x="44" y="232" width="120" height="5" fill="white"/>
<rect x="44" y="265" width="120" height="4" fill="#7B7B7B"/>
<rect x="44" y="265" width="120" height="4" fill="#7B7B7B"/>
<rect x="44" y="265" width="120" height="4" fill="white"/>
<rect x="44" y="222" width="52" height="4" fill="#7B7B7B"/>
<rect x="44" y="222" width="52" height="4" fill="#7B7B7B"/>
<rect x="44" y="222" width="52" height="4" fill="white"/>
<rect x="110" y="243" width="54" height="5" fill="#7B7B7B"/>
<rect x="110" y="243" width="54" height="5" fill="#7B7B7B"/>
<rect x="110" y="243" width="54" height="5" fill="white"/>
<rect x="44" y="243" width="62" height="5" fill="#7B7B7B"/>
<rect x="44" y="243" width="62" height="5" fill="#7B7B7B"/>
<rect x="44" y="243" width="62" height="5" fill="white"/>
<rect x="102" y="254" width="62" height="4" fill="#7B7B7B"/>
<rect x="102" y="254" width="62" height="4" fill="#7B7B7B"/>
<rect x="102" y="254" width="62" height="4" fill="white"/>
<rect x="44" y="276" width="54" height="4" fill="#7B7B7B"/>
<rect x="44" y="276" width="54" height="4" fill="#7B7B7B"/>
<rect x="44" y="276" width="54" height="4" fill="white"/>
<rect x="11" y="289" width="108" height="2" transform="rotate(-90 11 289)" fill="#7B7B7B"/>
<rect x="11" y="289" width="108" height="2" transform="rotate(-90 11 289)" fill="#7B7B7B"/>
<rect x="11" y="289" width="108" height="2" transform="rotate(-90 11 289)" fill="white"/>
<rect x="79" y="157" width="109" height="9" rx="4.5" fill="#7B7B7B"/>
<rect x="79" y="157" width="109" height="9" rx="4.5" fill="#7B7B7B"/>
<rect x="79" y="157" width="109" height="9" rx="4.5" fill="#7B7B7B"/>
<rect x="201" y="174" width="60" height="60" rx="7" fill="#8A6893"/>
<rect x="201" y="174" width="60" height="60" rx="7" fill="#8A6893"/>
<rect x="201" y="174" width="60" height="60" rx="7" fill="#8A6893"/>
<rect x="201" y="174" width="60" height="60" rx="7" fill="#8A6893"/>
<rect x="219" y="181" width="34" height="2" fill="#7B7B7B"/>
<rect x="219" y="181" width="34" height="2" fill="#7B7B7B"/>
<rect x="219" y="181" width="34" height="2" fill="white"/>
<rect x="201" y="237" width="60" height="60" rx="7" fill="#8A6893"/>
<rect x="201" y="237" width="60" height="60" rx="7" fill="#8A6893"/>
<rect x="201" y="237" width="60" height="60" rx="7" fill="#8A6893"/>
<rect x="201" y="237" width="60" height="60" rx="7" fill="#8A6893"/>
<rect x="219" y="244" width="34" height="2" fill="#7B7B7B"/>
<rect x="219" y="244" width="34" height="2" fill="#7B7B7B"/>
<rect x="219" y="244" width="34" height="2" fill="white"/>
</svg>
