<svg width="266" height="301" viewBox="0 0 266 301" fill="none" xmlns="http://www.w3.org/2000/svg">
<rect width="266" height="301" rx="15" fill="#474747"/>
<rect y="18" width="266" height="29" fill="#BBBBBB"/>
<rect x="26" y="60" width="129" height="90" rx="11" fill="#BBB9B9"/>
<rect x="38" y="193" width="60" height="60" rx="7" fill="#8A6893"/>
<rect x="38" y="193" width="60" height="60" rx="7" fill="#8A6893"/>
<rect x="38" y="193" width="60" height="60" rx="7" fill="#8A6893"/>
<rect x="38" y="193" width="60" height="60" rx="7" fill="#8A6893"/>
<rect x="103" y="193" width="60" height="60" rx="7" fill="#8A6893"/>
<rect x="103" y="193" width="60" height="60" rx="7" fill="#8A6893"/>
<rect x="103" y="193" width="60" height="60" rx="7" fill="#8A6893"/>
<rect x="103" y="193" width="60" height="60" rx="7" fill="#8A6893"/>
<rect x="168" y="193" width="60" height="60" rx="7" fill="#8A6893"/>
<rect x="168" y="193" width="60" height="60" rx="7" fill="#8A6893"/>
<rect x="168" y="193" width="60" height="60" rx="7" fill="#8A6893"/>
<rect x="168" y="193" width="60" height="60" rx="7" fill="#8A6893"/>
<rect x="171" y="81" width="78" height="2" fill="#7B7B7B"/>
<rect x="171" y="81" width="78" height="2" fill="#7B7B7B"/>
<rect x="171" y="81" width="78" height="2" fill="#7B7B7B"/>
<rect x="171" y="70" width="78" height="4" fill="#7B7B7B"/>
<rect x="171" y="70" width="78" height="4" fill="#7B7B7B"/>
<rect x="171" y="70" width="78" height="4" fill="#7B7B7B"/>
<rect x="171" y="91" width="78" height="2" fill="#7B7B7B"/>
<rect x="171" y="91" width="78" height="2" fill="#7B7B7B"/>
<rect x="171" y="91" width="78" height="2" fill="#7B7B7B"/>
<rect x="171" y="106" width="78" height="2" fill="#7B7B7B"/>
<rect x="171" y="106" width="78" height="2" fill="#7B7B7B"/>
<rect x="171" y="106" width="78" height="2" fill="#7B7B7B"/>
<rect x="171" y="86" width="34" height="2" fill="#7B7B7B"/>
<rect x="171" y="86" width="34" height="2" fill="#7B7B7B"/>
<rect x="171" y="86" width="34" height="2" fill="#7B7B7B"/>
<rect x="171" y="86" width="34" height="2" fill="#7B7B7B"/>
<rect x="171" y="86" width="34" height="2" fill="#7B7B7B"/>
<rect x="171" y="86" width="34" height="2" fill="#7B7B7B"/>
<rect x="216" y="29" width="34" height="7" rx="3.5" fill="#7B7B7B"/>
<rect x="216" y="29" width="34" height="7" rx="3.5" fill="#7B7B7B"/>
<rect x="216" y="29" width="34" height="7" rx="3.5" fill="#7B7B7B"/>
<rect x="164" y="29" width="34" height="7" rx="3.5" fill="#7B7B7B"/>
<rect x="164" y="29" width="34" height="7" rx="3.5" fill="#7B7B7B"/>
<rect x="164" y="29" width="34" height="7" rx="3.5" fill="#7B7B7B"/>
<rect x="112" y="29" width="34" height="7" rx="3.5" fill="#7B7B7B"/>
<rect x="112" y="29" width="34" height="7" rx="3.5" fill="#7B7B7B"/>
<rect x="112" y="29" width="34" height="7" rx="3.5" fill="#7B7B7B"/>
<rect x="214" y="96" width="35" height="2" fill="#7B7B7B"/>
<rect x="214" y="96" width="35" height="2" fill="#7B7B7B"/>
<rect x="214" y="96" width="35" height="2" fill="#7B7B7B"/>
<rect x="171" y="96" width="40" height="2" fill="#7B7B7B"/>
<rect x="171" y="96" width="40" height="2" fill="#7B7B7B"/>
<rect x="171" y="96" width="40" height="2" fill="#7B7B7B"/>
<rect x="209" y="101" width="40" height="2" fill="#7B7B7B"/>
<rect x="209" y="101" width="40" height="2" fill="#7B7B7B"/>
<rect x="209" y="101" width="40" height="2" fill="#7B7B7B"/>
<rect x="171" y="101" width="35" height="2" fill="#7B7B7B"/>
<rect x="171" y="101" width="35" height="2" fill="#7B7B7B"/>
<rect x="171" y="101" width="35" height="2" fill="#7B7B7B"/>
<rect x="171" y="111" width="35" height="2" fill="#7B7B7B"/>
<rect x="171" y="111" width="35" height="2" fill="#7B7B7B"/>
<rect x="171" y="111" width="35" height="2" fill="#7B7B7B"/>
<rect x="187" y="200" width="34" height="2" fill="#7B7B7B"/>
<rect x="187" y="200" width="34" height="2" fill="#7B7B7B"/>
<rect x="187" y="200" width="34" height="2" fill="#7B7B7B"/>
<rect x="121" y="200" width="34" height="2" fill="#7B7B7B"/>
<rect x="121" y="200" width="34" height="2" fill="#7B7B7B"/>
<rect x="121" y="200" width="34" height="2" fill="#7B7B7B"/>
<rect x="56" y="200" width="34" height="2" fill="#7B7B7B"/>
<rect x="56" y="200" width="34" height="2" fill="#7B7B7B"/>
<rect x="56" y="200" width="34" height="2" fill="#7B7B7B"/>
<rect x="87" y="180" width="93" height="4" fill="#7B7B7B"/>
<rect x="87" y="180" width="93" height="4" fill="#7B7B7B"/>
<rect x="87" y="180" width="93" height="4" fill="#7B7B7B"/>
</svg>
