<svg width="380" height="87" viewBox="0 0 380 87" fill="none" xmlns="http://www.w3.org/2000/svg">
<path fill-rule="evenodd" clip-rule="evenodd" d="M369.847 87H380V78.087V-1.49012e-05L376.132 38.8305L370.814 77.1695H305.547L249.466 87H369.847ZM0 0H10.1527H130.534L74.4529 9.83051H9.18575L3.86768 48.1695L0 87V8.91299V0ZM205.954 30.4746H210.789V43.3263L215.722 37.1489L220.872 30.6997H226.157L213.989 45.7479L226.157 62.1438H220.872L215.722 55.117L210.789 48.3864V61.9322H205.954V30.4746ZM83.7712 37.5479C83.7712 39.9422 82.7619 42.0495 81.2331 43.2736L91.9086 60.9471L86.8281 60.9471L84.4694 56.5423C83.2565 59.6884 80.4088 61.627 77.2391 61.627C73.0302 61.627 69.6183 57.473 69.6183 52.3488C69.6183 48.034 72.1187 44.5373 75.4214 43.5403C73.692 42.3721 72.5215 40.1264 72.5215 37.5479C72.5215 33.7657 75.0398 30.6997 78.1463 30.6997C81.2528 30.6997 83.7712 33.7657 83.7712 37.5479ZM77.9647 39.536C78.9669 39.536 79.7792 38.547 79.7792 37.3269C79.7792 36.1069 78.9669 35.1179 77.9647 35.1179C76.9626 35.1179 76.1503 36.1069 76.1503 37.3269C76.1503 38.547 76.9626 39.536 77.9647 39.536ZM80.1423 52.1278C80.1423 54.2019 78.7612 55.8833 77.0577 55.8833C75.3541 55.8833 73.9731 54.2019 73.9731 52.1278C73.9731 50.0538 75.3541 48.3724 77.0577 48.3724C78.7612 48.3724 80.1423 50.0538 80.1423 52.1278ZM97.659 30.6997H102.513V36.0901H102.494V43.7265H102.513V62.1438H97.659V46.2034V43.7265L97.659 36.0901V30.6997ZM111.815 30.7023V30.6997H102.513V36.0901L111.815 36.0901V36.0904C113.675 36.14 115.169 37.8299 115.169 39.9073C115.169 41.9847 113.675 43.6746 111.815 43.7242V43.7265H102.513V49.1169H111.815V49.1142C116.301 48.995 119.904 44.919 119.904 39.9083C119.904 34.8976 116.301 30.8216 111.815 30.7023ZM164.383 62.1437L159.934 57.2025L146.586 42.9632V57.4272L142.137 62.1438V30.6997L146.586 35.6409L159.934 50.0185V35.4163L164.383 30.6997V62.1437ZM302.652 30.6997H280.407V31.4576L280.407 42.7936V47.6312V57.3062V61.9322V62.1438H302.652V57.3062H285.242V47.6312H300.181V42.7936H285.242V35.5372H302.652V30.6997ZM252.366 30.6997H261.38V30.703C268.714 30.881 274.612 37.8503 274.612 46.4216C274.612 54.9929 268.714 61.9622 261.38 62.1402V62.1437H252.366V61.9322V56.7916V36.0518V30.6997ZM261.188 56.7916H257.201V36.0518H261.19C266.243 36.0927 270.327 40.719 270.327 46.4199C270.327 52.1216 266.242 56.7484 261.188 56.788V56.7916ZM316.946 30.6997H310.382L326.505 62.1438L342.514 30.6997H335.949L326.505 50.5231L316.946 30.6997ZM198.66 53.5444C198.66 58.7022 192.816 62.8834 185.607 62.8834C180.91 62.8834 176.793 61.1088 174.493 58.4456L176.421 54.036C177.523 54.5452 178.396 54.9699 179.123 55.3235C181.905 56.6762 182.54 56.9851 185.607 56.9851C185.84 56.9851 186.087 56.9897 186.342 56.9944C188.734 57.0388 191.892 57.0973 191.892 53.5444C191.892 51.65 188.667 50.7986 185.043 49.8417C184.755 49.7658 184.465 49.6892 184.174 49.6114C177.894 48.9355 173.079 45.0584 173.079 40.3768C173.079 35.219 178.923 31.0378 186.132 31.0378C189.947 31.0378 193.379 32.2083 195.766 34.0747L193.691 39.1378C193.298 38.9492 192.942 38.7761 192.616 38.6175C189.834 37.2648 189.199 36.9558 186.132 36.9558C185.9 36.9558 185.654 36.9512 185.399 36.9465H185.399H185.399H185.399H185.398H185.398H185.398H185.398H185.397H185.397C183.005 36.9021 179.847 36.8436 179.847 40.3965C179.847 42.291 183.072 43.1423 186.696 44.0993C186.944 44.1646 187.193 44.2305 187.444 44.2972C193.783 44.936 198.66 48.8327 198.66 53.5444ZM40.6457 30.6997H35.7761V62.1437H40.6457V37.4379L44.2245 42.8281L48.9964 50.0154L54.1956 42.8281L58.095 37.4377V30.6997L48.9964 42.8281L40.6457 30.6999V30.6997ZM62.9647 30.6997H58.0951V62.1437H62.9647V30.6997ZM104.427 57.0169H104.91V79.6271H104.427V57.0169ZM204.503 53.0847H204.02V75.6949H204.503V53.0847ZM249.466 19.661H249.948V42.2711H249.466V19.661ZM33.3581 16.7119H32.8753V39.322H33.3581V16.7119ZM139.237 18.678H139.719V41.2881H139.237V18.678ZM350.026 21.0492H349.059L338.422 41.6933L339.389 41.6933L350.026 21.0492Z" fill="url(#paint0_linear_2_94)"/>
<defs>
<linearGradient id="paint0_linear_2_94" x1="2" y1="2.00001" x2="492.975" y2="77.6629" gradientUnits="userSpaceOnUse">
<stop stop-color="white"/>
<stop offset="1" stop-color="#0015D3"/>
</linearGradient>
</defs>
</svg>
