<svg width="1920" height="1280" viewBox="0 0 1920 1280" fill="none" xmlns="http://www.w3.org/2000/svg">
<g clip-path="url(#clip0_90_2)">
<path d="M0 103H29.2C58.3 103 116.7 103 174.8 103C233 103 291 103 349.2 107.3C407.3 111.7 465.7 120.3 523.8 133.2C582 146 640 163 698.2 171.5C756.3 180 814.7 180 872.8 175.8C931 171.7 989 163.3 1047.2 150.5C1105.3 137.7 1163.7 120.3 1221.8 131C1280 141.7 1338 180.3 1396.2 186.8C1454.3 193.3 1512.7 167.7 1570.8 152.7C1629 137.7 1687 133.3 1745.2 126.8C1803.3 120.3 1861.7 111.7 1890.8 107.3L1920 103V0H1890.8C1861.7 0 1803.3 0 1745.2 0C1687 0 1629 0 1570.8 0C1512.7 0 1454.3 0 1396.2 0C1338 0 1280 0 1221.8 0C1163.7 0 1105.3 0 1047.2 0C989 0 931 0 872.8 0C814.7 0 756.3 0 698.2 0C640 0 582 0 523.8 0C465.7 0 407.3 0 349.2 0C291 0 233 0 174.8 0C116.7 0 58.3 0 29.2 0H0V103Z" fill="#361853"/>
<path d="M0 539L29.2 509C58.3 479 116.7 419 174.8 410.3C233 401.7 291 444.3 349.2 478.5C407.3 512.7 465.7 538.3 523.8 547C582 555.7 640 547.3 698.2 577.2C756.3 607 814.7 675 872.8 666.3C931 657.7 989 572.3 1047.2 534C1105.3 495.7 1163.7 504.3 1221.8 517.2C1280 530 1338 547 1396.2 542.7C1454.3 538.3 1512.7 512.7 1570.8 523.3C1629 534 1687 581 1745.2 587.5C1803.3 594 1861.7 560 1890.8 543L1920 526V101L1890.8 105.3C1861.7 109.7 1803.3 118.3 1745.2 124.8C1687 131.3 1629 135.7 1570.8 150.7C1512.7 165.7 1454.3 191.3 1396.2 184.8C1338 178.3 1280 139.7 1221.8 129C1163.7 118.3 1105.3 135.7 1047.2 148.5C989 161.3 931 169.7 872.8 173.8C814.7 178 756.3 178 698.2 169.5C640 161 582 144 523.8 131.2C465.7 118.3 407.3 109.7 349.2 105.3C291 101 233 101 174.8 101C116.7 101 58.3 101 29.2 101H0V539Z" fill="#2D184F"/>
<path d="M0 769L29.2 717.8C58.3 666.7 116.7 564.3 174.8 543C233 521.7 291 581.3 349.2 643.2C407.3 705 465.7 769 523.8 790.3C582 811.7 640 790.3 698.2 794.7C756.3 799 814.7 829 872.8 801.3C931 773.7 989 688.3 1047.2 647.7C1105.3 607 1163.7 611 1221.8 630.2C1280 649.3 1338 683.7 1396.2 705C1454.3 726.3 1512.7 734.7 1570.8 743.2C1629 751.7 1687 760.3 1745.2 739C1803.3 717.7 1861.7 666.3 1890.8 640.7L1920 615V524L1890.8 541C1861.7 558 1803.3 592 1745.2 585.5C1687 579 1629 532 1570.8 521.3C1512.7 510.7 1454.3 536.3 1396.2 540.7C1338 545 1280 528 1221.8 515.2C1163.7 502.3 1105.3 493.7 1047.2 532C989 570.3 931 655.7 872.8 664.3C814.7 673 756.3 605 698.2 575.2C640 545.3 582 553.7 523.8 545C465.7 536.3 407.3 510.7 349.2 476.5C291 442.3 233 399.7 174.8 408.3C116.7 417 58.3 477 29.2 507L0 537V769Z" fill="#1F1348"/>
<path d="M0 1063L29.2 1022.5C58.3 982 116.7 901 174.8 875.5C233 850 291 880 349.2 924.8C407.3 969.7 465.7 1029.3 523.8 1025C582 1020.7 640 952.3 698.2 941.7C756.3 931 814.7 978 872.8 984.5C931 991 989 957 1047.2 918.7C1105.3 880.3 1163.7 837.7 1221.8 844C1280 850.3 1338 905.7 1396.2 937.7C1454.3 969.7 1512.7 978.3 1570.8 972C1629 965.7 1687 944.3 1745.2 916.5C1803.3 888.7 1861.7 854.3 1890.8 837.2L1920 820V613L1890.8 638.7C1861.7 664.3 1803.3 715.7 1745.2 737C1687 758.3 1629 749.7 1570.8 741.2C1512.7 732.7 1454.3 724.3 1396.2 703C1338 681.7 1280 647.3 1221.8 628.2C1163.7 609 1105.3 605 1047.2 645.7C989 686.3 931 771.7 872.8 799.3C814.7 827 756.3 797 698.2 792.7C640 788.3 582 809.7 523.8 788.3C465.7 767 407.3 703 349.2 641.2C291 579.3 233 519.7 174.8 541C116.7 562.3 58.3 664.7 29.2 715.8L0 767V1063Z" fill="#110E3A"/>
<path d="M0 1281H29.2C58.3 1281 116.7 1281 174.8 1281C233 1281 291 1281 349.2 1281C407.3 1281 465.7 1281 523.8 1281C582 1281 640 1281 698.2 1281C756.3 1281 814.7 1281 872.8 1281C931 1281 989 1281 1047.2 1281C1105.3 1281 1163.7 1281 1221.8 1281C1280 1281 1338 1281 1396.2 1281C1454.3 1281 1512.7 1281 1570.8 1281C1629 1281 1687 1281 1745.2 1281C1803.3 1281 1861.7 1281 1890.8 1281H1920V818L1890.8 835.2C1861.7 852.3 1803.3 886.7 1745.2 914.5C1687 942.3 1629 963.7 1570.8 970C1512.7 976.3 1454.3 967.7 1396.2 935.7C1338 903.7 1280 848.3 1221.8 842C1163.7 835.7 1105.3 878.3 1047.2 916.7C989 955 931 989 872.8 982.5C814.7 976 756.3 929 698.2 939.7C640 950.3 582 1018.7 523.8 1023C465.7 1027.3 407.3 967.7 349.2 922.8C291 878 233 848 174.8 873.5C116.7 899 58.3 980 29.2 1020.5L0 1061V1281Z" fill="#090C2D"/>
</g>
<defs>
<clipPath id="clip0_90_2">
<rect width="1920" height="1280" fill="white"/>
</clipPath>
</defs>
</svg>
