<svg width="309" height="333" viewBox="0 0 309 333" fill="none" xmlns="http://www.w3.org/2000/svg">
<rect width="266" height="301" rx="15" fill="#474747"/>
<rect y="18" width="266" height="29" fill="#BBBBBB"/>
<rect x="26" y="60" width="129" height="90" rx="11" fill="#BBB9B9"/>
<rect x="38" y="193" width="60" height="60" rx="7" fill="#8A6893"/>
<rect x="38" y="193" width="60" height="60" rx="7" fill="#8A6893"/>
<rect x="38" y="193" width="60" height="60" rx="7" fill="#8A6893"/>
<rect x="38" y="193" width="60" height="60" rx="7" fill="#8A6893"/>
<rect x="103" y="193" width="60" height="60" rx="7" fill="#8A6893"/>
<rect x="103" y="193" width="60" height="60" rx="7" fill="#8A6893"/>
<rect x="103" y="193" width="60" height="60" rx="7" fill="#8A6893"/>
<rect x="103" y="193" width="60" height="60" rx="7" fill="#8A6893"/>
<rect x="168" y="193" width="60" height="60" rx="7" fill="#8A6893"/>
<rect x="168" y="193" width="60" height="60" rx="7" fill="#8A6893"/>
<rect x="168" y="193" width="60" height="60" rx="7" fill="#8A6893"/>
<rect x="168" y="193" width="60" height="60" rx="7" fill="#8A6893"/>
<rect x="171" y="81" width="78" height="2" fill="#7B7B7B"/>
<rect x="171" y="81" width="78" height="2" fill="#7B7B7B"/>
<rect x="171" y="81" width="78" height="2" fill="#7B7B7B"/>
<rect x="171" y="70" width="78" height="4" fill="#7B7B7B"/>
<rect x="171" y="70" width="78" height="4" fill="#7B7B7B"/>
<rect x="171" y="70" width="78" height="4" fill="#7B7B7B"/>
<rect x="171" y="91" width="78" height="2" fill="#7B7B7B"/>
<rect x="171" y="91" width="78" height="2" fill="#7B7B7B"/>
<rect x="171" y="91" width="78" height="2" fill="#7B7B7B"/>
<rect x="171" y="106" width="78" height="2" fill="#7B7B7B"/>
<rect x="171" y="106" width="78" height="2" fill="#7B7B7B"/>
<rect x="171" y="106" width="78" height="2" fill="#7B7B7B"/>
<rect x="171" y="86" width="34" height="2" fill="#7B7B7B"/>
<rect x="171" y="86" width="34" height="2" fill="#7B7B7B"/>
<rect x="171" y="86" width="34" height="2" fill="#7B7B7B"/>
<rect x="171" y="86" width="34" height="2" fill="#7B7B7B"/>
<rect x="171" y="86" width="34" height="2" fill="#7B7B7B"/>
<rect x="171" y="86" width="34" height="2" fill="#7B7B7B"/>
<rect x="216" y="29" width="34" height="7" rx="3.5" fill="#7B7B7B"/>
<rect x="216" y="29" width="34" height="7" rx="3.5" fill="#7B7B7B"/>
<rect x="216" y="29" width="34" height="7" rx="3.5" fill="#7B7B7B"/>
<rect x="164" y="29" width="34" height="7" rx="3.5" fill="#7B7B7B"/>
<rect x="164" y="29" width="34" height="7" rx="3.5" fill="#7B7B7B"/>
<rect x="164" y="29" width="34" height="7" rx="3.5" fill="#7B7B7B"/>
<rect x="112" y="29" width="34" height="7" rx="3.5" fill="#7B7B7B"/>
<rect x="112" y="29" width="34" height="7" rx="3.5" fill="#7B7B7B"/>
<rect x="112" y="29" width="34" height="7" rx="3.5" fill="#7B7B7B"/>
<rect x="214" y="96" width="35" height="2" fill="#7B7B7B"/>
<rect x="214" y="96" width="35" height="2" fill="#7B7B7B"/>
<rect x="214" y="96" width="35" height="2" fill="#7B7B7B"/>
<rect x="171" y="96" width="40" height="2" fill="#7B7B7B"/>
<rect x="171" y="96" width="40" height="2" fill="#7B7B7B"/>
<rect x="171" y="96" width="40" height="2" fill="#7B7B7B"/>
<rect x="209" y="101" width="40" height="2" fill="#7B7B7B"/>
<rect x="209" y="101" width="40" height="2" fill="#7B7B7B"/>
<rect x="209" y="101" width="40" height="2" fill="#7B7B7B"/>
<rect x="171" y="101" width="35" height="2" fill="#7B7B7B"/>
<rect x="171" y="101" width="35" height="2" fill="#7B7B7B"/>
<rect x="171" y="101" width="35" height="2" fill="#7B7B7B"/>
<rect x="171" y="111" width="35" height="2" fill="#7B7B7B"/>
<rect x="171" y="111" width="35" height="2" fill="#7B7B7B"/>
<rect x="171" y="111" width="35" height="2" fill="#7B7B7B"/>
<rect x="187" y="200" width="34" height="2" fill="#7B7B7B"/>
<rect x="187" y="200" width="34" height="2" fill="#7B7B7B"/>
<rect x="187" y="200" width="34" height="2" fill="#7B7B7B"/>
<rect x="121" y="200" width="34" height="2" fill="#7B7B7B"/>
<rect x="121" y="200" width="34" height="2" fill="#7B7B7B"/>
<rect x="121" y="200" width="34" height="2" fill="#7B7B7B"/>
<rect x="56" y="200" width="34" height="2" fill="#7B7B7B"/>
<rect x="56" y="200" width="34" height="2" fill="#7B7B7B"/>
<rect x="56" y="200" width="34" height="2" fill="#7B7B7B"/>
<rect x="87" y="180" width="93" height="4" fill="#7B7B7B"/>
<rect x="87" y="180" width="93" height="4" fill="#7B7B7B"/>
<rect x="87" y="180" width="93" height="4" fill="#7B7B7B"/>
<rect x="17" y="18" width="266" height="301" rx="15" fill="#7E7E7E"/>
<rect x="17" y="36" width="266" height="29" fill="#BBBBBB"/>
<rect x="43" y="78" width="129" height="90" rx="11" fill="#BBB9B9"/>
<rect x="55" y="211" width="60" height="60" rx="7" fill="#8A6893"/>
<rect x="55" y="211" width="60" height="60" rx="7" fill="#8A6893"/>
<rect x="55" y="211" width="60" height="60" rx="7" fill="#8A6893"/>
<rect x="55" y="211" width="60" height="60" rx="7" fill="#8A6893"/>
<rect x="120" y="211" width="60" height="60" rx="7" fill="#8A6893"/>
<rect x="120" y="211" width="60" height="60" rx="7" fill="#8A6893"/>
<rect x="120" y="211" width="60" height="60" rx="7" fill="#8A6893"/>
<rect x="120" y="211" width="60" height="60" rx="7" fill="#8A6893"/>
<rect x="185" y="211" width="60" height="60" rx="7" fill="#8A6893"/>
<rect x="185" y="211" width="60" height="60" rx="7" fill="#8A6893"/>
<rect x="185" y="211" width="60" height="60" rx="7" fill="#8A6893"/>
<rect x="185" y="211" width="60" height="60" rx="7" fill="#8A6893"/>
<rect x="188" y="99" width="78" height="2" fill="#7B7B7B"/>
<rect x="188" y="99" width="78" height="2" fill="#7B7B7B"/>
<rect x="188" y="99" width="78" height="2" fill="#7B7B7B"/>
<rect x="188" y="88" width="78" height="4" fill="#7B7B7B"/>
<rect x="188" y="88" width="78" height="4" fill="#7B7B7B"/>
<rect x="188" y="88" width="78" height="4" fill="#7B7B7B"/>
<rect x="188" y="109" width="78" height="2" fill="#7B7B7B"/>
<rect x="188" y="109" width="78" height="2" fill="#7B7B7B"/>
<rect x="188" y="109" width="78" height="2" fill="#7B7B7B"/>
<rect x="188" y="124" width="78" height="2" fill="#7B7B7B"/>
<rect x="188" y="124" width="78" height="2" fill="#7B7B7B"/>
<rect x="188" y="124" width="78" height="2" fill="#7B7B7B"/>
<rect x="188" y="104" width="34" height="2" fill="#7B7B7B"/>
<rect x="188" y="104" width="34" height="2" fill="#7B7B7B"/>
<rect x="188" y="104" width="34" height="2" fill="#7B7B7B"/>
<rect x="188" y="104" width="34" height="2" fill="#7B7B7B"/>
<rect x="188" y="104" width="34" height="2" fill="#7B7B7B"/>
<rect x="188" y="104" width="34" height="2" fill="#7B7B7B"/>
<rect x="233" y="47" width="34" height="7" rx="3.5" fill="#7B7B7B"/>
<rect x="233" y="47" width="34" height="7" rx="3.5" fill="#7B7B7B"/>
<rect x="233" y="47" width="34" height="7" rx="3.5" fill="#7B7B7B"/>
<rect x="181" y="47" width="34" height="7" rx="3.5" fill="#7B7B7B"/>
<rect x="181" y="47" width="34" height="7" rx="3.5" fill="#7B7B7B"/>
<rect x="181" y="47" width="34" height="7" rx="3.5" fill="#7B7B7B"/>
<rect x="129" y="47" width="34" height="7" rx="3.5" fill="#7B7B7B"/>
<rect x="129" y="47" width="34" height="7" rx="3.5" fill="#7B7B7B"/>
<rect x="129" y="47" width="34" height="7" rx="3.5" fill="#7B7B7B"/>
<rect x="231" y="114" width="35" height="2" fill="#7B7B7B"/>
<rect x="231" y="114" width="35" height="2" fill="#7B7B7B"/>
<rect x="231" y="114" width="35" height="2" fill="#7B7B7B"/>
<rect x="188" y="114" width="40" height="2" fill="#7B7B7B"/>
<rect x="188" y="114" width="40" height="2" fill="#7B7B7B"/>
<rect x="188" y="114" width="40" height="2" fill="#7B7B7B"/>
<rect x="226" y="119" width="40" height="2" fill="#7B7B7B"/>
<rect x="226" y="119" width="40" height="2" fill="#7B7B7B"/>
<rect x="226" y="119" width="40" height="2" fill="#7B7B7B"/>
<rect x="188" y="119" width="35" height="2" fill="#7B7B7B"/>
<rect x="188" y="119" width="35" height="2" fill="#7B7B7B"/>
<rect x="188" y="119" width="35" height="2" fill="#7B7B7B"/>
<rect x="188" y="129" width="35" height="2" fill="#7B7B7B"/>
<rect x="188" y="129" width="35" height="2" fill="#7B7B7B"/>
<rect x="188" y="129" width="35" height="2" fill="#7B7B7B"/>
<rect x="204" y="218" width="34" height="2" fill="#7B7B7B"/>
<rect x="204" y="218" width="34" height="2" fill="#7B7B7B"/>
<rect x="204" y="218" width="34" height="2" fill="#7B7B7B"/>
<rect x="138" y="218" width="34" height="2" fill="#7B7B7B"/>
<rect x="138" y="218" width="34" height="2" fill="#7B7B7B"/>
<rect x="138" y="218" width="34" height="2" fill="#7B7B7B"/>
<rect x="73" y="218" width="34" height="2" fill="#7B7B7B"/>
<rect x="73" y="218" width="34" height="2" fill="#7B7B7B"/>
<rect x="73" y="218" width="34" height="2" fill="#7B7B7B"/>
<rect x="104" y="198" width="93" height="4" fill="#7B7B7B"/>
<rect x="104" y="198" width="93" height="4" fill="#7B7B7B"/>
<rect x="104" y="198" width="93" height="4" fill="#7B7B7B"/>
<rect x="43" y="32" width="266" height="301" rx="15" fill="#474747"/>
<rect x="43" y="50" width="266" height="29" fill="#BBBBBB"/>
<rect x="69" y="92" width="129" height="90" rx="11" fill="#BBB9B9"/>
<rect x="81" y="225" width="60" height="60" rx="7" fill="#8A6893"/>
<rect x="81" y="225" width="60" height="60" rx="7" fill="#8A6893"/>
<rect x="81" y="225" width="60" height="60" rx="7" fill="#8A6893"/>
<rect x="81" y="225" width="60" height="60" rx="7" fill="#8A6893"/>
<rect x="146" y="225" width="60" height="60" rx="7" fill="#8A6893"/>
<rect x="146" y="225" width="60" height="60" rx="7" fill="#8A6893"/>
<rect x="146" y="225" width="60" height="60" rx="7" fill="#8A6893"/>
<rect x="146" y="225" width="60" height="60" rx="7" fill="#8A6893"/>
<rect x="211" y="225" width="60" height="60" rx="7" fill="#8A6893"/>
<rect x="211" y="225" width="60" height="60" rx="7" fill="#8A6893"/>
<rect x="211" y="225" width="60" height="60" rx="7" fill="#8A6893"/>
<rect x="211" y="225" width="60" height="60" rx="7" fill="#8A6893"/>
<rect x="214" y="113" width="78" height="2" fill="#7B7B7B"/>
<rect x="214" y="113" width="78" height="2" fill="#7B7B7B"/>
<rect x="214" y="113" width="78" height="2" fill="#7B7B7B"/>
<rect x="214" y="102" width="78" height="4" fill="#7B7B7B"/>
<rect x="214" y="102" width="78" height="4" fill="#7B7B7B"/>
<rect x="214" y="102" width="78" height="4" fill="#7B7B7B"/>
<rect x="214" y="123" width="78" height="2" fill="#7B7B7B"/>
<rect x="214" y="123" width="78" height="2" fill="#7B7B7B"/>
<rect x="214" y="123" width="78" height="2" fill="#7B7B7B"/>
<rect x="214" y="138" width="78" height="2" fill="#7B7B7B"/>
<rect x="214" y="138" width="78" height="2" fill="#7B7B7B"/>
<rect x="214" y="138" width="78" height="2" fill="#7B7B7B"/>
<rect x="214" y="118" width="34" height="2" fill="#7B7B7B"/>
<rect x="214" y="118" width="34" height="2" fill="#7B7B7B"/>
<rect x="214" y="118" width="34" height="2" fill="#7B7B7B"/>
<rect x="214" y="118" width="34" height="2" fill="#7B7B7B"/>
<rect x="214" y="118" width="34" height="2" fill="#7B7B7B"/>
<rect x="214" y="118" width="34" height="2" fill="#7B7B7B"/>
<rect x="259" y="61" width="34" height="7" rx="3.5" fill="#7B7B7B"/>
<rect x="259" y="61" width="34" height="7" rx="3.5" fill="#7B7B7B"/>
<rect x="259" y="61" width="34" height="7" rx="3.5" fill="#7B7B7B"/>
<rect x="207" y="61" width="34" height="7" rx="3.5" fill="#7B7B7B"/>
<rect x="207" y="61" width="34" height="7" rx="3.5" fill="#7B7B7B"/>
<rect x="207" y="61" width="34" height="7" rx="3.5" fill="#7B7B7B"/>
<rect x="155" y="61" width="34" height="7" rx="3.5" fill="#7B7B7B"/>
<rect x="155" y="61" width="34" height="7" rx="3.5" fill="#7B7B7B"/>
<rect x="155" y="61" width="34" height="7" rx="3.5" fill="#7B7B7B"/>
<rect x="257" y="128" width="35" height="2" fill="#7B7B7B"/>
<rect x="257" y="128" width="35" height="2" fill="#7B7B7B"/>
<rect x="257" y="128" width="35" height="2" fill="#7B7B7B"/>
<rect x="214" y="128" width="40" height="2" fill="#7B7B7B"/>
<rect x="214" y="128" width="40" height="2" fill="#7B7B7B"/>
<rect x="214" y="128" width="40" height="2" fill="#7B7B7B"/>
<rect x="252" y="133" width="40" height="2" fill="#7B7B7B"/>
<rect x="252" y="133" width="40" height="2" fill="#7B7B7B"/>
<rect x="252" y="133" width="40" height="2" fill="#7B7B7B"/>
<rect x="214" y="133" width="35" height="2" fill="#7B7B7B"/>
<rect x="214" y="133" width="35" height="2" fill="#7B7B7B"/>
<rect x="214" y="133" width="35" height="2" fill="#7B7B7B"/>
<rect x="214" y="143" width="35" height="2" fill="#7B7B7B"/>
<rect x="214" y="143" width="35" height="2" fill="#7B7B7B"/>
<rect x="214" y="143" width="35" height="2" fill="#7B7B7B"/>
<rect x="230" y="232" width="34" height="2" fill="#7B7B7B"/>
<rect x="230" y="232" width="34" height="2" fill="#7B7B7B"/>
<rect x="230" y="232" width="34" height="2" fill="white"/>
<rect x="164" y="232" width="34" height="2" fill="#7B7B7B"/>
<rect x="164" y="232" width="34" height="2" fill="#7B7B7B"/>
<rect x="164" y="232" width="34" height="2" fill="white"/>
<rect x="99" y="232" width="34" height="2" fill="#7B7B7B"/>
<rect x="99" y="232" width="34" height="2" fill="#7B7B7B"/>
<rect x="99" y="232" width="34" height="2" fill="white"/>
<rect x="130" y="212" width="93" height="4" fill="#7B7B7B"/>
<rect x="130" y="212" width="93" height="4" fill="#7B7B7B"/>
<rect x="130" y="212" width="93" height="4" fill="#7B7B7B"/>
</svg>
