<svg width="32" height="20" viewBox="0 0 32 20" fill="none" xmlns="http://www.w3.org/2000/svg">
<g clip-path="url(#clip0_18_46)">
<path d="M20.1228 2.74414H11.8555V17.6008H20.1228V2.74414Z" fill="#FF5F00"/>
<path d="M12.3806 10.1725C12.3793 8.74171 12.7036 7.32936 13.3288 6.04239C13.954 4.75542 14.8638 3.62756 15.9894 2.74419C14.5955 1.64861 12.9216 0.96728 11.1588 0.778083C9.3961 0.588887 7.61568 0.899447 6.0211 1.67428C4.42652 2.44912 3.0821 3.65696 2.14152 5.15975C1.20094 6.66254 0.702148 8.39964 0.702148 10.1725C0.702148 11.9454 1.20094 13.6825 2.14152 15.1853C3.0821 16.6881 4.42652 17.8959 6.0211 18.6707C7.61568 19.4456 9.3961 19.7561 11.1588 19.5669C12.9216 19.3777 14.5955 18.6964 15.9894 17.6008C14.8638 16.7175 13.954 15.5896 13.3288 14.3026C12.7036 13.0157 12.3793 11.6033 12.3806 10.1725Z" fill="#EB001B"/>
<path d="M31.276 10.1725C31.2761 11.9453 30.7773 13.6824 29.8368 15.1852C28.8963 16.688 27.5519 17.8959 25.9574 18.6707C24.3628 19.4455 22.5824 19.7561 20.8197 19.5669C19.057 19.3777 17.3831 18.6964 15.9893 17.6008C17.1138 16.7166 18.0229 15.5885 18.648 14.3018C19.2732 13.015 19.598 11.6031 19.598 10.1725C19.598 8.74193 19.2732 7.33003 18.648 6.04326C18.0229 4.75649 17.1138 3.62845 15.9893 2.74419C17.3831 1.6486 19.057 0.967275 20.8197 0.778081C22.5824 0.588887 24.3628 0.89946 25.9574 1.6743C27.5519 2.44915 28.8963 3.65699 29.8368 5.15978C30.7773 6.66257 31.2761 8.39966 31.276 10.1725Z" fill="#F79E1B"/>
<path d="M30.3743 16.0276V15.7235H30.4969V15.6615H30.1846V15.7235H30.3073V16.0276H30.3743ZM30.9807 16.0276V15.6609H30.8849L30.7748 15.9131L30.6647 15.6609H30.5689V16.0276H30.6365V15.751L30.7397 15.9895H30.8098L30.9131 15.7504V16.0276H30.9807Z" fill="#F79E1B"/>
</g>
<defs>
<clipPath id="clip0_18_46">
<rect width="32" height="20" fill="white"/>
</clipPath>
</defs>
</svg>
