<svg width="40" height="12" viewBox="0 0 40 12" fill="none" xmlns="http://www.w3.org/2000/svg">
<g clip-path="url(#clip0_18_23)">
<path fill-rule="evenodd" clip-rule="evenodd" d="M35.5108 0.391357H27.9189C28.3271 2.92197 30.7761 5.28931 33.47 5.28931H39.5108C39.5924 5.04442 39.5924 4.71789 39.5924 4.47299C39.5924 2.18727 37.7965 0.391357 35.5108 0.391357Z" fill="url(#paint0_linear_18_23)"/>
<path fill-rule="evenodd" clip-rule="evenodd" d="M28.5713 5.69751V11.82H32.2448V8.55465H35.5101C37.306 8.55465 38.857 7.33016 39.3468 5.69751H28.5713Z" fill="#4DB45F"/>
<path fill-rule="evenodd" clip-rule="evenodd" d="M15.5107 0.391357V11.8199H18.776C18.776 11.8199 19.5924 11.8199 20.0005 11.0036C22.2046 6.59544 22.8577 5.28932 22.8577 5.28932H23.2658V11.8199H26.9393V0.391357H23.674C23.674 0.391357 22.8577 0.47299 22.4495 1.20768C20.572 4.96279 19.5924 6.92197 19.5924 6.92197H19.1842V0.391357H15.5107Z" fill="#4DB45F"/>
<path fill-rule="evenodd" clip-rule="evenodd" d="M0 11.8199V0.391357H3.67347C3.67347 0.391357 4.73469 0.391357 5.30612 2.02401C6.77551 6.35054 6.93878 6.92197 6.93878 6.92197C6.93878 6.92197 7.26531 5.86074 8.57143 2.02401C9.14286 0.391357 10.2041 0.391357 10.2041 0.391357H13.8776V11.8199H10.2041V5.69748H9.79592L7.7551 11.8199H6.12245L4.08163 5.69748H3.67347V11.8199H0Z" fill="#4DB45F"/>
</g>
<defs>
<linearGradient id="paint0_linear_18_23" x1="27.8979" y1="2.84034" x2="39.5924" y2="2.84034" gradientUnits="userSpaceOnUse">
<stop stop-color="#00B4E6"/>
<stop offset="1" stop-color="#088CCB"/>
</linearGradient>
<clipPath id="clip0_18_23">
<rect width="40" height="12" fill="white"/>
</clipPath>
</defs>
</svg>
