<svg width="40" height="14" viewBox="0 0 40 14" fill="none" xmlns="http://www.w3.org/2000/svg">
<rect width="40" height="14" fill="#1E1E1E"/>
<g id="1 PAFE" clip-path="url(#clip0_0_1)">
<rect width="1920" height="4552" transform="translate(-489 -4428)" fill="url(#paint0_linear_0_1)"/>
<g id="Frame 10" clip-path="url(#clip1_0_1)">
<rect id="Rectangle 56" x="-364" y="-233" width="1691" height="432" rx="86" fill="url(#paint1_linear_0_1)"/>
<g id="payment-footer-visa 2" clip-path="url(#clip2_0_1)">
<path id="Vector" d="M14.667 12.746L16.6987 1.31738H19.8733L17.9051 12.746H14.667Z" fill="#3C58BF"/>
<path id="Vector_2" d="M14.667 12.746L17.2702 1.31738H19.8733L17.9051 12.746H14.667Z" fill="#293688"/>
<path id="Vector_3" d="M29.3969 1.44446C28.762 1.19049 27.7461 0.936523 26.4763 0.936523C23.3017 0.936523 21.0159 2.52382 21.0159 4.80954C21.0159 6.52382 22.6033 7.41271 23.8731 7.98414C25.1429 8.55557 25.5239 8.93652 25.5239 9.44446C25.5239 10.2064 24.508 10.5873 23.6191 10.5873C22.3493 10.5873 21.6509 10.3968 20.5715 9.9524L20.1271 9.76192L19.6826 12.3651C20.4445 12.6826 21.8413 13 23.3017 13C26.6667 13 28.889 11.4127 28.889 9.00002C28.889 7.66668 28.0636 6.65081 26.1588 5.82541C25.016 5.25398 24.3175 4.93652 24.3175 4.36509C24.3175 3.85716 24.889 3.34922 26.1588 3.34922C27.2382 3.34922 28.0001 3.5397 28.5715 3.79367L28.889 3.92065L29.3969 1.44446Z" fill="#3C58BF"/>
<path id="Vector_4" d="M29.3969 1.44446C28.762 1.19049 27.7461 0.936523 26.4763 0.936523C23.3017 0.936523 21.5874 2.52382 21.5874 4.80954C21.5874 6.52382 22.6033 7.41271 23.8731 7.98414C25.1429 8.55557 25.5239 8.93652 25.5239 9.44446C25.5239 10.2064 24.508 10.5873 23.6191 10.5873C22.3493 10.5873 21.6509 10.3968 20.5715 9.9524L20.1271 9.76192L19.6826 12.3651C20.4445 12.6826 21.8413 13 23.3017 13C26.6667 13 28.889 11.4127 28.889 9.00002C28.889 7.66668 28.0636 6.65081 26.1588 5.82541C25.016 5.25398 24.3175 4.93652 24.3175 4.36509C24.3175 3.85716 24.889 3.34922 26.1588 3.34922C27.2382 3.34922 28.0001 3.5397 28.5715 3.79367L28.889 3.92065L29.3969 1.44446Z" fill="#293688"/>
<path id="Vector_5" d="M34.857 1.31738C34.0951 1.31738 33.5237 1.38088 33.2062 2.14278L28.4443 12.746H31.8729L32.5078 10.8412H36.5713L36.9523 12.746H39.9999L37.3332 1.31738H34.857ZM33.3967 8.93643C33.5872 8.365 34.6666 5.57135 34.6666 5.57135C34.6666 5.57135 34.9205 4.87294 35.111 4.42849L35.3015 5.50786C35.3015 5.50786 35.9364 8.365 36.0634 8.99992H33.3967V8.93643Z" fill="#3C58BF"/>
<path id="Vector_6" d="M35.6189 1.31738C34.857 1.31738 34.2856 1.38088 33.9681 2.14278L28.4443 12.746H31.8729L32.5078 10.8412H36.5713L36.9523 12.746H39.9999L37.3332 1.31738H35.6189ZM33.3967 8.93643C33.6507 8.30151 34.6666 5.57135 34.6666 5.57135C34.6666 5.57135 34.9205 4.87294 35.111 4.42849L35.3015 5.50786C35.3015 5.50786 35.9364 8.365 36.0634 8.99992H33.3967V8.93643Z" fill="#293688"/>
<path id="Vector_7" d="M8.82538 9.31737L8.50792 7.66657C7.93649 5.76181 6.09522 3.66657 4.06348 2.6507L6.92062 12.8094H10.3492L15.492 1.38086H12.0635L8.82538 9.31737Z" fill="#3C58BF"/>
<path id="Vector_8" d="M8.82538 9.31737L8.50792 7.66657C7.93649 5.76181 6.09522 3.66657 4.06348 2.6507L6.92062 12.8094H10.3492L15.492 1.38086H12.6984L8.82538 9.31737Z" fill="#293688"/>
<path id="Vector_9" d="M0 1.31738L0.571429 1.44437C4.63492 2.39675 7.42857 4.80945 8.50794 7.66659L7.36508 2.26976C7.1746 1.50786 6.60318 1.31738 5.90476 1.31738H0Z" fill="#FFBC00"/>
<path id="Vector_10" d="M0 1.31738C4.06349 2.26976 7.42857 4.74595 8.50794 7.6031L7.42857 3.09516C7.2381 2.33326 6.60318 1.88881 5.90476 1.88881L0 1.31738Z" fill="#F7981D"/>
<path id="Vector_11" d="M0 1.31738C4.06349 2.26976 7.42857 4.74595 8.50794 7.6031L7.74603 5.12691C7.55556 4.365 7.30159 3.6031 6.4127 3.28564L0 1.31738Z" fill="#ED7C00"/>
<path id="Vector_12" d="M12 8.93661L9.84124 6.77788L8.82537 9.19058L8.5714 7.60328C7.99997 5.69851 6.1587 3.60328 4.12695 2.5874L6.9841 12.7461H10.4127L12 8.93661Z" fill="#051244"/>
<path id="Vector_13" d="M17.9051 12.746L15.1749 9.95239L14.667 12.746H17.9051Z" fill="#051244"/>
<path id="Vector_14" d="M25.2064 8.80957C25.4604 9.06354 25.5874 9.25402 25.5239 9.50798C25.5239 10.2699 24.508 10.6508 23.6191 10.6508C22.3493 10.6508 21.6509 10.4604 20.5715 10.0159L20.1271 9.82544L19.6826 12.4286C20.4445 12.7461 21.8413 13.0635 23.3017 13.0635C25.3334 13.0635 26.9842 12.4921 27.9366 11.4762L25.2064 8.80957Z" fill="#051244"/>
<path id="Vector_15" d="M28.8887 12.7462H31.8728L32.5077 10.8414H36.5712L36.9522 12.7462H39.9998L38.9204 8.11125L35.1109 4.42871L35.3014 5.44458C35.3014 5.44458 35.9363 8.30173 36.0633 8.93665H33.3966C33.6506 8.30173 34.6664 5.57157 34.6664 5.57157C34.6664 5.57157 34.9204 4.87316 35.1109 4.42871" fill="#051244"/>
</g>
</g>
</g>
<defs>
<linearGradient id="paint0_linear_0_1" x1="960" y1="0" x2="960" y2="4552" gradientUnits="userSpaceOnUse">
<stop stop-color="#0B0B0B"/>
<stop offset="0.5" stop-color="#1D1D1D"/>
<stop offset="1" stop-color="#020202"/>
</linearGradient>
<linearGradient id="paint1_linear_0_1" x1="-337.3" y1="-220.707" x2="8.13421" y2="317.566" gradientUnits="userSpaceOnUse">
<stop stop-color="#181818"/>
<stop offset="0.994792" stop-color="#0B0B0B" stop-opacity="0"/>
</linearGradient>
<clipPath id="clip0_0_1">
<rect width="1920" height="4552" fill="white" transform="translate(-489 -4428)"/>
</clipPath>
<clipPath id="clip1_0_1">
<rect width="1920" height="390" fill="white" transform="translate(-489 -266)"/>
</clipPath>
<clipPath id="clip2_0_1">
<rect width="40" height="14" fill="white"/>
</clipPath>
</defs>
</svg>
