<svg width="1450" height="273" viewBox="0 0 1450 273" fill="none" xmlns="http://www.w3.org/2000/svg">
<path d="M1436 101L1439.14 112.056H1449.31L1441.09 118.889L1444.23 129.944L1436 123.111L1427.77 129.944L1430.91 118.889L1422.69 112.056H1432.86L1436 101Z" fill="#D9D9D9"/>
<path d="M1138 209L1141.14 220.056H1151.31L1143.09 226.889L1146.23 237.944L1138 231.111L1129.77 237.944L1132.91 226.889L1124.69 220.056H1134.86L1138 209Z" fill="#D9D9D9"/>
<path d="M1009 0L1012.14 11.0557H1022.31L1014.09 17.8885L1017.23 28.9443L1009 22.1115L1000.77 28.9443L1003.91 17.8885L995.685 11.0557H1005.86L1009 0Z" fill="#D9D9D9"/>
<path d="M417 171L420.143 182.056H430.315L422.086 188.889L425.229 199.944L417 193.111L408.771 199.944L411.914 188.889L403.685 182.056H413.857L417 171Z" fill="#D9D9D9"/>
<path d="M246 16L249.143 27.0557H259.315L251.086 33.8885L254.229 44.9443L246 38.1115L237.771 44.9443L240.914 33.8885L232.685 27.0557H242.857L246 16Z" fill="#D9D9D9"/>
<path d="M14 241L17.1432 252.056H27.3148L19.0858 258.889L22.229 269.944L14 263.111L5.77101 269.944L8.9142 258.889L0.685208 252.056H10.8568L14 241Z" fill="#D9D9D9"/>
</svg>
